<svg width="20" height="21" viewBox="0 0 20 21" fill="none" xmlns="http://www.w3.org/2000/svg">
  <rect x="0.0273224" y="0.986063" width="19.9454" height="19.9454" stroke="#954E4E" stroke-width="0.0546448"/>
  <path d="M4.91803 3V7.91803H0" fill="#EA4335"/>
  <path d="M4.91797 3V7.91803H11.4753V11.306L16.3934 7.31694V4.63934C16.3934 3.54645 15.8469 3 14.754 3" fill="#FFBA00"/>
  <path d="M4.80884 19.3935V14.4755H11.4755V11.1968L16.3935 15.0766V17.7542C16.3935 18.8471 15.8471 19.3935 14.7542 19.3935" fill="#00AC47"/>
  <path d="M11.4753 11.1968L16.3934 7.20776V15.1859" fill="#00832D"/>
  <path d="M16.3936 7.20757L18.6886 5.34964C19.1804 4.96713 19.6722 4.96713 19.6722 5.73216V16.6611C19.6722 17.4261 19.1804 17.4261 18.6886 17.0436L16.3936 15.1857" fill="#00AC47"/>
  <path d="M0 14.3662V17.7542C0 18.8471 0.546448 19.3935 1.63934 19.3935H4.91803V14.3662" fill="#0066DA"/>
  <path d="M0 7.91797H4.91803V14.4753H0" fill="#2684FC"/>
</svg>
