<svg width="160" height="38" viewBox="0 0 160 38" fill="none" xmlns="http://www.w3.org/2000/svg">
<path fill-rule="evenodd" clip-rule="evenodd" d="M104.652 24.3891C97.2529 31.7886 91.0423 37.9991 81.3675 37.9995C70.6362 37.9999 64.8878 31.8461 58.0175 24.4912C47.8155 13.5696 35.1395 -0.000488281 0 -0.000488281H160C129.042 -0.000488281 115.556 13.4852 104.652 24.3891ZM91.8353 12.7614C92.256 12.4036 92.3071 11.7725 91.9493 11.3518C91.5916 10.931 90.9605 10.8799 90.5397 11.2377L82.4866 18.0848C82.1001 18.4134 81.5287 18.4005 81.1574 18.0547L73.869 11.2677C73.4648 10.8913 72.832 10.9138 72.4557 11.318C72.0793 11.7222 72.1018 12.355 72.506 12.7313L79.7944 19.5184C80.9083 20.5557 82.6225 20.5944 83.7821 19.6085L91.8353 12.7614Z" fill="#09090B"/>
</svg>
