<svg width="300" height="64" viewBox="0 0 300 64" fill="none" xmlns="http://www.w3.org/2000/svg">
<g filter="url(#filter0_b_60_573)">
<rect x="0.567383" width="299.433" height="64" rx="10" fill="url(#paint0_radial_60_573)" fill-opacity="0.08"/>
<rect x="1.00488" y="0.4375" width="298.558" height="63.125" rx="9.5625" stroke="white" stroke-opacity="0.25" stroke-width="0.875"/>
<g clip-path="url(#clip0_60_573)">
<path d="M50 14.2837H14.5674V49.7163H50V14.2837Z" fill="#820AD1"/>
<path d="M25.2982 27.0729C25.9895 26.3399 26.9069 25.9116 27.9844 25.9116C30.0834 25.9116 31.4749 27.4584 31.7403 29.776C31.8267 30.5289 31.8256 31.5898 31.8249 32.819V37.8062H28.9393V34.4011C28.9393 34.4011 28.9333 31.4865 28.9159 30.9418C28.8383 28.5695 27.4469 27.0786 25.2979 27.0772C24.6498 27.7685 24.3022 28.614 24.2512 29.9066C24.2441 30.0867 24.2459 30.7254 24.248 31.5684C24.248 32.0048 24.2505 32.4958 24.2512 33.0055C24.2533 35.2252 24.2512 37.8069 24.2512 37.8069H21.3645V32.5659C21.3645 32.3879 21.361 32.2053 21.3578 32.0234C21.3514 31.6577 21.3447 31.2893 21.3645 30.924C21.3971 30.316 21.5013 29.7179 21.7826 29.1622C22.4261 27.8895 23.7452 27.07 25.1516 27.07C25.2005 27.07 25.2497 27.07 25.2982 27.0729Z" fill="white"/>
<path d="M43.203 33.0761C43.2228 32.7112 43.2161 32.3424 43.2097 31.9767C43.2065 31.7948 43.203 31.614 43.203 31.4342V26.1932H40.3166C40.3166 26.1932 40.3141 28.7749 40.3166 30.9946C40.3166 31.5043 40.3166 31.9953 40.3195 32.4317C40.3216 33.274 40.3234 33.9134 40.3166 34.0935C40.2652 35.3861 39.9176 36.2316 39.2696 36.9229C37.1206 36.9229 35.7292 35.431 35.6519 33.0586C35.6342 32.5139 35.6268 31.1622 35.6268 29.5966V26.1911L32.7422 26.1939V31.1811C32.7422 32.4103 32.7404 33.4712 32.8269 34.2241C33.0926 36.5417 34.4841 38.0885 36.5827 38.0885C37.6602 38.0885 38.5772 37.6613 39.2689 36.9272C39.3174 36.929 39.3663 36.9301 39.4156 36.9301C40.8219 36.9301 42.1407 36.1113 42.7845 34.8379C43.0658 34.2822 43.17 33.6841 43.2026 33.0757L43.203 33.0761Z" fill="white"/>
</g>
<path d="M61.5752 27L57.9932 16.9785H60.1875L62.7236 24.3955L65.1777 16.9785H67.3242L63.7354 27H61.5752ZM71.7676 24.6895L73.6816 25.0107C73.4355 25.7126 73.0459 26.248 72.5127 26.6172C71.984 26.9818 71.321 27.1641 70.5234 27.1641C69.2611 27.1641 68.3268 26.7516 67.7207 25.9268C67.2422 25.266 67.0029 24.432 67.0029 23.4248C67.0029 22.2217 67.3174 21.2806 67.9463 20.6016C68.5752 19.918 69.3704 19.5762 70.332 19.5762C71.4121 19.5762 72.2643 19.9339 72.8887 20.6494C73.513 21.3604 73.8115 22.4518 73.7842 23.9238H68.9717C68.9854 24.4935 69.1403 24.9378 69.4365 25.2568C69.7327 25.5713 70.1019 25.7285 70.5439 25.7285C70.8447 25.7285 71.0977 25.6465 71.3027 25.4824C71.5078 25.3184 71.6628 25.054 71.7676 24.6895ZM71.877 22.748C71.8633 22.1921 71.7197 21.7705 71.4463 21.4834C71.1729 21.1917 70.8402 21.0459 70.4482 21.0459C70.029 21.0459 69.6826 21.1986 69.4092 21.5039C69.1357 21.8092 69.0013 22.224 69.0059 22.748H71.877ZM81.96 27H80.0391V23.2949C80.0391 22.5111 79.998 22.0052 79.916 21.7773C79.834 21.5449 79.6995 21.3649 79.5127 21.2373C79.3304 21.1097 79.1094 21.0459 78.8496 21.0459C78.5169 21.0459 78.2184 21.137 77.9541 21.3193C77.6898 21.5016 77.5075 21.7432 77.4072 22.0439C77.3115 22.3447 77.2637 22.9007 77.2637 23.7119V27H75.3428V19.7402H77.127V20.8066C77.7604 19.9863 78.5579 19.5762 79.5195 19.5762C79.9434 19.5762 80.3307 19.6536 80.6816 19.8086C81.0326 19.959 81.2969 20.1527 81.4746 20.3896C81.6569 20.6266 81.7822 20.8955 81.8506 21.1963C81.9235 21.4971 81.96 21.9277 81.96 22.4883V27ZM90.5732 27H88.7891V25.9336C88.4928 26.3483 88.1419 26.6582 87.7363 26.8633C87.3353 27.0638 86.9297 27.1641 86.5195 27.1641C85.6855 27.1641 84.9701 26.8291 84.373 26.1592C83.7806 25.4847 83.4844 24.5459 83.4844 23.3428C83.4844 22.1123 83.7738 21.1781 84.3525 20.54C84.9313 19.8975 85.6628 19.5762 86.5469 19.5762C87.3581 19.5762 88.0599 19.9134 88.6523 20.5879V16.9785H90.5732V27ZM85.4463 23.2129C85.4463 23.9876 85.5534 24.5482 85.7676 24.8945C86.0775 25.3958 86.5104 25.6465 87.0664 25.6465C87.5085 25.6465 87.8844 25.4596 88.1943 25.0859C88.5042 24.7077 88.6592 24.1449 88.6592 23.3975C88.6592 22.5635 88.5088 21.9642 88.208 21.5996C87.9072 21.2305 87.5221 21.0459 87.0527 21.0459C86.597 21.0459 86.2142 21.2282 85.9043 21.5928C85.599 21.9528 85.4463 22.4928 85.4463 23.2129ZM93.9092 21.9551L92.166 21.6406C92.362 20.9388 92.6992 20.4193 93.1777 20.082C93.6562 19.7448 94.3672 19.5762 95.3105 19.5762C96.1673 19.5762 96.8053 19.6787 97.2246 19.8838C97.6439 20.0843 97.9378 20.3418 98.1064 20.6562C98.2796 20.9661 98.3662 21.5381 98.3662 22.3721L98.3457 24.6143C98.3457 25.2523 98.3753 25.724 98.4346 26.0293C98.4984 26.3301 98.6146 26.6536 98.7832 27H96.8828C96.8327 26.8724 96.7712 26.6833 96.6982 26.4326C96.6663 26.3187 96.6436 26.2435 96.6299 26.207C96.3018 26.526 95.9508 26.7653 95.5771 26.9248C95.2035 27.0843 94.8047 27.1641 94.3809 27.1641C93.6335 27.1641 93.0433 26.9613 92.6104 26.5557C92.182 26.1501 91.9678 25.6374 91.9678 25.0176C91.9678 24.6074 92.0658 24.2428 92.2617 23.9238C92.4577 23.6003 92.7311 23.3542 93.082 23.1855C93.4375 23.0124 93.9479 22.862 94.6133 22.7344C95.5111 22.5658 96.1331 22.4085 96.4795 22.2627V22.0713C96.4795 21.7021 96.3883 21.4401 96.2061 21.2852C96.0238 21.1257 95.6797 21.0459 95.1738 21.0459C94.832 21.0459 94.5654 21.1143 94.374 21.251C94.1826 21.3831 94.0277 21.6178 93.9092 21.9551ZM96.4795 23.5137C96.2334 23.5957 95.8438 23.6937 95.3105 23.8076C94.7773 23.9215 94.4287 24.0332 94.2646 24.1426C94.014 24.3203 93.8887 24.5459 93.8887 24.8193C93.8887 25.0882 93.9889 25.3206 94.1895 25.5166C94.39 25.7126 94.6452 25.8105 94.9551 25.8105C95.3014 25.8105 95.6318 25.6966 95.9463 25.4688C96.1787 25.2956 96.3314 25.0837 96.4043 24.833C96.4544 24.6689 96.4795 24.3568 96.4795 23.8965V23.5137ZM105.599 21.9551L103.855 21.6406C104.051 20.9388 104.389 20.4193 104.867 20.082C105.346 19.7448 106.057 19.5762 107 19.5762C107.857 19.5762 108.495 19.6787 108.914 19.8838C109.333 20.0843 109.627 20.3418 109.796 20.6562C109.969 20.9661 110.056 21.5381 110.056 22.3721L110.035 24.6143C110.035 25.2523 110.065 25.724 110.124 26.0293C110.188 26.3301 110.304 26.6536 110.473 27H108.572C108.522 26.8724 108.461 26.6833 108.388 26.4326C108.356 26.3187 108.333 26.2435 108.319 26.207C107.991 26.526 107.64 26.7653 107.267 26.9248C106.893 27.0843 106.494 27.1641 106.07 27.1641C105.323 27.1641 104.733 26.9613 104.3 26.5557C103.871 26.1501 103.657 25.6374 103.657 25.0176C103.657 24.6074 103.755 24.2428 103.951 23.9238C104.147 23.6003 104.421 23.3542 104.771 23.1855C105.127 23.0124 105.637 22.862 106.303 22.7344C107.201 22.5658 107.823 22.4085 108.169 22.2627V22.0713C108.169 21.7021 108.078 21.4401 107.896 21.2852C107.713 21.1257 107.369 21.0459 106.863 21.0459C106.521 21.0459 106.255 21.1143 106.063 21.251C105.872 21.3831 105.717 21.6178 105.599 21.9551ZM108.169 23.5137C107.923 23.5957 107.533 23.6937 107 23.8076C106.467 23.9215 106.118 24.0332 105.954 24.1426C105.703 24.3203 105.578 24.5459 105.578 24.8193C105.578 25.0882 105.678 25.3206 105.879 25.5166C106.079 25.7126 106.335 25.8105 106.645 25.8105C106.991 25.8105 107.321 25.6966 107.636 25.4688C107.868 25.2956 108.021 25.0837 108.094 24.833C108.144 24.6689 108.169 24.3568 108.169 23.8965V23.5137ZM111.901 19.7402H113.692V20.8066C113.925 20.4421 114.239 20.1458 114.636 19.918C115.032 19.6901 115.472 19.5762 115.955 19.5762C116.798 19.5762 117.514 19.9066 118.102 20.5674C118.689 21.2282 118.983 22.1488 118.983 23.3291C118.983 24.5413 118.687 25.4847 118.095 26.1592C117.502 26.8291 116.785 27.1641 115.941 27.1641C115.54 27.1641 115.176 27.0843 114.848 26.9248C114.524 26.7653 114.182 26.4919 113.822 26.1045V29.7617H111.901V19.7402ZM113.802 23.2471C113.802 24.0628 113.964 24.6667 114.287 25.0586C114.611 25.446 115.005 25.6396 115.47 25.6396C115.916 25.6396 116.288 25.4619 116.584 25.1064C116.88 24.7464 117.028 24.1585 117.028 23.3428C117.028 22.5817 116.876 22.0166 116.57 21.6475C116.265 21.2783 115.887 21.0938 115.436 21.0938C114.966 21.0938 114.576 21.276 114.267 21.6406C113.957 22.0007 113.802 22.5361 113.802 23.2471ZM122.354 27H120.433V19.7402H122.217V20.7725C122.522 20.2848 122.796 19.9635 123.037 19.8086C123.283 19.6536 123.561 19.5762 123.871 19.5762C124.309 19.5762 124.73 19.6969 125.136 19.9385L124.541 21.6133C124.217 21.4036 123.917 21.2988 123.639 21.2988C123.37 21.2988 123.142 21.374 122.955 21.5244C122.768 21.6702 122.62 21.9368 122.511 22.3242C122.406 22.7116 122.354 23.5228 122.354 24.7578V27ZM125.525 23.2676C125.525 22.6296 125.683 22.012 125.997 21.415C126.312 20.818 126.756 20.3623 127.33 20.0479C127.909 19.7334 128.554 19.5762 129.265 19.5762C130.363 19.5762 131.263 19.9339 131.965 20.6494C132.667 21.3604 133.018 22.2604 133.018 23.3496C133.018 24.4479 132.662 25.3594 131.951 26.084C131.245 26.804 130.354 27.1641 129.278 27.1641C128.613 27.1641 127.977 27.0137 127.371 26.7129C126.77 26.4121 126.312 25.9723 125.997 25.3936C125.683 24.8102 125.525 24.1016 125.525 23.2676ZM127.494 23.3701C127.494 24.0902 127.665 24.6416 128.007 25.0244C128.349 25.4072 128.77 25.5986 129.271 25.5986C129.773 25.5986 130.192 25.4072 130.529 25.0244C130.871 24.6416 131.042 24.0856 131.042 23.3564C131.042 22.6455 130.871 22.0986 130.529 21.7158C130.192 21.333 129.773 21.1416 129.271 21.1416C128.77 21.1416 128.349 21.333 128.007 21.7158C127.665 22.0986 127.494 22.6501 127.494 23.3701ZM136.524 27L133.599 19.7402H135.615L136.982 23.4453L137.379 24.6826C137.484 24.3682 137.55 24.1608 137.577 24.0605C137.641 23.8555 137.709 23.6504 137.782 23.4453L139.163 19.7402H141.139L138.254 27H136.524ZM143.757 21.9551L142.014 21.6406C142.21 20.9388 142.547 20.4193 143.025 20.082C143.504 19.7448 144.215 19.5762 145.158 19.5762C146.015 19.5762 146.653 19.6787 147.072 19.8838C147.492 20.0843 147.785 20.3418 147.954 20.6562C148.127 20.9661 148.214 21.5381 148.214 22.3721L148.193 24.6143C148.193 25.2523 148.223 25.724 148.282 26.0293C148.346 26.3301 148.462 26.6536 148.631 27H146.73C146.68 26.8724 146.619 26.6833 146.546 26.4326C146.514 26.3187 146.491 26.2435 146.478 26.207C146.149 26.526 145.799 26.7653 145.425 26.9248C145.051 27.0843 144.652 27.1641 144.229 27.1641C143.481 27.1641 142.891 26.9613 142.458 26.5557C142.03 26.1501 141.815 25.6374 141.815 25.0176C141.815 24.6074 141.913 24.2428 142.109 23.9238C142.305 23.6003 142.579 23.3542 142.93 23.1855C143.285 23.0124 143.796 22.862 144.461 22.7344C145.359 22.5658 145.981 22.4085 146.327 22.2627V22.0713C146.327 21.7021 146.236 21.4401 146.054 21.2852C145.871 21.1257 145.527 21.0459 145.021 21.0459C144.68 21.0459 144.413 21.1143 144.222 21.251C144.03 21.3831 143.875 21.6178 143.757 21.9551ZM146.327 23.5137C146.081 23.5957 145.691 23.6937 145.158 23.8076C144.625 23.9215 144.276 24.0332 144.112 24.1426C143.862 24.3203 143.736 24.5459 143.736 24.8193C143.736 25.0882 143.837 25.3206 144.037 25.5166C144.238 25.7126 144.493 25.8105 144.803 25.8105C145.149 25.8105 145.479 25.6966 145.794 25.4688C146.026 25.2956 146.179 25.0837 146.252 24.833C146.302 24.6689 146.327 24.3568 146.327 23.8965V23.5137ZM156.772 27H154.988V25.9336C154.692 26.3483 154.341 26.6582 153.936 26.8633C153.535 27.0638 153.129 27.1641 152.719 27.1641C151.885 27.1641 151.169 26.8291 150.572 26.1592C149.98 25.4847 149.684 24.5459 149.684 23.3428C149.684 22.1123 149.973 21.1781 150.552 20.54C151.131 19.8975 151.862 19.5762 152.746 19.5762C153.557 19.5762 154.259 19.9134 154.852 20.5879V16.9785H156.772V27ZM151.646 23.2129C151.646 23.9876 151.753 24.5482 151.967 24.8945C152.277 25.3958 152.71 25.6465 153.266 25.6465C153.708 25.6465 154.084 25.4596 154.394 25.0859C154.703 24.7077 154.858 24.1449 154.858 23.3975C154.858 22.5635 154.708 21.9642 154.407 21.5996C154.106 21.2305 153.721 21.0459 153.252 21.0459C152.796 21.0459 152.413 21.2282 152.104 21.5928C151.798 21.9528 151.646 22.4928 151.646 23.2129ZM160.108 21.9551L158.365 21.6406C158.561 20.9388 158.898 20.4193 159.377 20.082C159.855 19.7448 160.566 19.5762 161.51 19.5762C162.367 19.5762 163.005 19.6787 163.424 19.8838C163.843 20.0843 164.137 20.3418 164.306 20.6562C164.479 20.9661 164.565 21.5381 164.565 22.3721L164.545 24.6143C164.545 25.2523 164.575 25.724 164.634 26.0293C164.698 26.3301 164.814 26.6536 164.982 27H163.082C163.032 26.8724 162.97 26.6833 162.897 26.4326C162.866 26.3187 162.843 26.2435 162.829 26.207C162.501 26.526 162.15 26.7653 161.776 26.9248C161.403 27.0843 161.004 27.1641 160.58 27.1641C159.833 27.1641 159.243 26.9613 158.81 26.5557C158.381 26.1501 158.167 25.6374 158.167 25.0176C158.167 24.6074 158.265 24.2428 158.461 23.9238C158.657 23.6003 158.93 23.3542 159.281 23.1855C159.637 23.0124 160.147 22.862 160.812 22.7344C161.71 22.5658 162.332 22.4085 162.679 22.2627V22.0713C162.679 21.7021 162.588 21.4401 162.405 21.2852C162.223 21.1257 161.879 21.0459 161.373 21.0459C161.031 21.0459 160.765 21.1143 160.573 21.251C160.382 21.3831 160.227 21.6178 160.108 21.9551ZM162.679 23.5137C162.433 23.5957 162.043 23.6937 161.51 23.8076C160.977 23.9215 160.628 24.0332 160.464 24.1426C160.213 24.3203 160.088 24.5459 160.088 24.8193C160.088 25.0882 160.188 25.3206 160.389 25.5166C160.589 25.7126 160.844 25.8105 161.154 25.8105C161.501 25.8105 161.831 25.6966 162.146 25.4688C162.378 25.2956 162.531 25.0837 162.604 24.833C162.654 24.6689 162.679 24.3568 162.679 23.8965V23.5137ZM167.218 24.416L166.719 19.3301V16.9785H168.797V19.3301L168.305 24.416H167.218ZM166.801 27V25.0791H168.722V27H166.801Z" fill="white"/>
<path d="M61.6299 47V38.1611H58.3281V36.9785H66.2715V38.1611H62.9561V47H61.6299ZM66.9482 47V39.7402H68.0557V40.8408C68.3382 40.3258 68.598 39.9863 68.835 39.8223C69.0765 39.6582 69.3408 39.5762 69.6279 39.5762C70.0426 39.5762 70.4642 39.7083 70.8926 39.9727L70.4688 41.1143C70.168 40.9365 69.8672 40.8477 69.5664 40.8477C69.2975 40.8477 69.056 40.9297 68.8418 41.0938C68.6276 41.2533 68.4749 41.4766 68.3838 41.7637C68.2471 42.2012 68.1787 42.6797 68.1787 43.1992V47H66.9482ZM76.3613 46.1045C75.9056 46.4919 75.4658 46.7653 75.042 46.9248C74.6227 47.0843 74.1715 47.1641 73.6885 47.1641C72.891 47.1641 72.278 46.9704 71.8496 46.583C71.4212 46.1911 71.207 45.6921 71.207 45.0859C71.207 44.7305 71.2868 44.4069 71.4463 44.1152C71.6104 43.819 71.8223 43.582 72.082 43.4043C72.3464 43.2266 72.6426 43.0921 72.9707 43.001C73.2122 42.9372 73.5768 42.8757 74.0645 42.8164C75.0579 42.6979 75.7894 42.5566 76.2588 42.3926C76.2633 42.224 76.2656 42.1169 76.2656 42.0713C76.2656 41.57 76.1494 41.2168 75.917 41.0117C75.6025 40.7337 75.1354 40.5947 74.5156 40.5947C73.9368 40.5947 73.5085 40.6973 73.2305 40.9023C72.957 41.1029 72.7542 41.4606 72.6221 41.9756L71.4189 41.8115C71.5283 41.2965 71.7083 40.8818 71.959 40.5674C72.2096 40.2484 72.5719 40.0046 73.0459 39.8359C73.5199 39.6628 74.069 39.5762 74.6934 39.5762C75.3132 39.5762 75.8167 39.6491 76.2041 39.7949C76.5915 39.9408 76.8763 40.1253 77.0586 40.3486C77.2409 40.5674 77.3685 40.8454 77.4414 41.1826C77.4824 41.3923 77.5029 41.7705 77.5029 42.3174V43.958C77.5029 45.1019 77.528 45.8265 77.5781 46.1318C77.6328 46.4326 77.7376 46.722 77.8926 47H76.6074C76.4798 46.7448 76.3978 46.4463 76.3613 46.1045ZM76.2588 43.3564C75.8122 43.5387 75.1423 43.6937 74.249 43.8213C73.7432 43.8942 73.3854 43.9762 73.1758 44.0674C72.9661 44.1585 72.8044 44.293 72.6904 44.4707C72.5765 44.6439 72.5195 44.8376 72.5195 45.0518C72.5195 45.3799 72.6426 45.6533 72.8887 45.8721C73.1393 46.0908 73.5039 46.2002 73.9824 46.2002C74.4564 46.2002 74.8779 46.0977 75.2471 45.8926C75.6162 45.6829 75.8874 45.3981 76.0605 45.0381C76.1927 44.7601 76.2588 44.3499 76.2588 43.8076V43.3564ZM79.417 47V39.7402H80.5244V40.7725C81.0576 39.9749 81.8278 39.5762 82.835 39.5762C83.2725 39.5762 83.6735 39.6559 84.0381 39.8154C84.4072 39.9704 84.6829 40.1755 84.8652 40.4307C85.0475 40.6859 85.1751 40.9889 85.248 41.3398C85.2936 41.5677 85.3164 41.9665 85.3164 42.5361V47H84.0859V42.584C84.0859 42.0827 84.0381 41.709 83.9424 41.4629C83.8467 41.2122 83.6758 41.014 83.4297 40.8682C83.1882 40.7178 82.9033 40.6426 82.5752 40.6426C82.0511 40.6426 81.5977 40.8089 81.2148 41.1416C80.8366 41.4743 80.6475 42.1055 80.6475 43.0352V47H79.417ZM86.7178 44.833L87.9346 44.6416C88.0029 45.1292 88.1921 45.5029 88.502 45.7627C88.8164 46.0225 89.2539 46.1523 89.8145 46.1523C90.3796 46.1523 90.7988 46.0384 91.0723 45.8105C91.3457 45.5781 91.4824 45.307 91.4824 44.9971C91.4824 44.7191 91.3617 44.5003 91.1201 44.3408C90.9515 44.2314 90.5322 44.0924 89.8623 43.9238C88.96 43.696 88.3333 43.5 87.9824 43.3359C87.6361 43.1673 87.3717 42.9372 87.1895 42.6455C87.0117 42.3493 86.9229 42.0234 86.9229 41.668C86.9229 41.3444 86.9958 41.0459 87.1416 40.7725C87.292 40.4945 87.4948 40.2643 87.75 40.082C87.9414 39.9408 88.2012 39.8223 88.5293 39.7266C88.862 39.6263 89.2174 39.5762 89.5957 39.5762C90.1654 39.5762 90.6644 39.6582 91.0928 39.8223C91.5257 39.9863 91.8447 40.2096 92.0498 40.4922C92.2549 40.7702 92.3962 41.1439 92.4736 41.6133L91.2705 41.7773C91.2158 41.4036 91.0563 41.112 90.792 40.9023C90.5322 40.6927 90.1631 40.5879 89.6846 40.5879C89.1195 40.5879 88.7161 40.6813 88.4746 40.8682C88.2331 41.055 88.1123 41.2738 88.1123 41.5244C88.1123 41.6839 88.1624 41.8275 88.2627 41.9551C88.363 42.0872 88.5202 42.1966 88.7344 42.2832C88.8574 42.3288 89.2197 42.4336 89.8213 42.5977C90.6917 42.8301 91.2979 43.0215 91.6396 43.1719C91.986 43.3177 92.2572 43.5319 92.4531 43.8145C92.6491 44.097 92.7471 44.4479 92.7471 44.8672C92.7471 45.2773 92.6263 45.6647 92.3848 46.0293C92.1478 46.3893 91.8037 46.6696 91.3525 46.8701C90.9014 47.0661 90.391 47.1641 89.8213 47.1641C88.8779 47.1641 88.1579 46.9681 87.6611 46.5762C87.1689 46.1842 86.8545 45.6032 86.7178 44.833ZM94.5039 47V40.6973H93.417V39.7402H94.5039V38.9678C94.5039 38.4801 94.5472 38.1178 94.6338 37.8809C94.7523 37.5618 94.9596 37.3044 95.2559 37.1084C95.5566 36.9079 95.9759 36.8076 96.5137 36.8076C96.86 36.8076 97.2428 36.8486 97.6621 36.9307L97.4775 38.0039C97.2223 37.9583 96.9808 37.9355 96.7529 37.9355C96.3792 37.9355 96.1149 38.0153 95.96 38.1748C95.805 38.3343 95.7275 38.6328 95.7275 39.0703V39.7402H97.1426V40.6973H95.7275V47H94.5039ZM103.076 44.6621L104.348 44.8193C104.147 45.5622 103.776 46.1387 103.233 46.5488C102.691 46.959 101.998 47.1641 101.155 47.1641C100.093 47.1641 99.2503 46.8382 98.626 46.1865C98.0062 45.5303 97.6963 44.612 97.6963 43.4316C97.6963 42.2103 98.0107 41.2624 98.6396 40.5879C99.2686 39.9134 100.084 39.5762 101.087 39.5762C102.058 39.5762 102.851 39.9066 103.466 40.5674C104.081 41.2282 104.389 42.1579 104.389 43.3564C104.389 43.4294 104.386 43.5387 104.382 43.6846H98.9678C99.0133 44.4821 99.2389 45.0928 99.6445 45.5166C100.05 45.9404 100.556 46.1523 101.162 46.1523C101.613 46.1523 101.998 46.0339 102.317 45.7969C102.636 45.5599 102.889 45.1816 103.076 44.6621ZM99.0361 42.6729H103.09C103.035 42.0622 102.88 41.6042 102.625 41.2988C102.233 40.8249 101.725 40.5879 101.101 40.5879C100.535 40.5879 100.059 40.777 99.6719 41.1553C99.2891 41.5335 99.0771 42.0394 99.0361 42.6729ZM105.886 47V39.7402H106.993V40.8408C107.276 40.3258 107.535 39.9863 107.772 39.8223C108.014 39.6582 108.278 39.5762 108.565 39.5762C108.98 39.5762 109.402 39.7083 109.83 39.9727L109.406 41.1143C109.105 40.9365 108.805 40.8477 108.504 40.8477C108.235 40.8477 107.993 40.9297 107.779 41.0938C107.565 41.2533 107.412 41.4766 107.321 41.7637C107.185 42.2012 107.116 42.6797 107.116 43.1992V47H105.886ZM115.531 44.6621L116.803 44.8193C116.602 45.5622 116.231 46.1387 115.688 46.5488C115.146 46.959 114.453 47.1641 113.61 47.1641C112.549 47.1641 111.705 46.8382 111.081 46.1865C110.461 45.5303 110.151 44.612 110.151 43.4316C110.151 42.2103 110.466 41.2624 111.095 40.5879C111.724 39.9134 112.539 39.5762 113.542 39.5762C114.513 39.5762 115.306 39.9066 115.921 40.5674C116.536 41.2282 116.844 42.1579 116.844 43.3564C116.844 43.4294 116.841 43.5387 116.837 43.6846H111.423C111.468 44.4821 111.694 45.0928 112.1 45.5166C112.505 45.9404 113.011 46.1523 113.617 46.1523C114.068 46.1523 114.453 46.0339 114.772 45.7969C115.091 45.5599 115.344 45.1816 115.531 44.6621ZM111.491 42.6729H115.545C115.49 42.0622 115.335 41.6042 115.08 41.2988C114.688 40.8249 114.18 40.5879 113.556 40.5879C112.991 40.5879 112.514 40.777 112.127 41.1553C111.744 41.5335 111.532 42.0394 111.491 42.6729ZM113.515 37.6758L112.742 38.8379H111.334L112.811 36.9238H114.123L115.661 38.8379H114.267L113.515 37.6758ZM118.354 47V39.7402H119.462V40.7725C119.995 39.9749 120.765 39.5762 121.772 39.5762C122.21 39.5762 122.611 39.6559 122.976 39.8154C123.345 39.9704 123.62 40.1755 123.803 40.4307C123.985 40.6859 124.113 40.9889 124.186 41.3398C124.231 41.5677 124.254 41.9665 124.254 42.5361V47H123.023V42.584C123.023 42.0827 122.976 41.709 122.88 41.4629C122.784 41.2122 122.613 41.014 122.367 40.8682C122.126 40.7178 121.841 40.6426 121.513 40.6426C120.989 40.6426 120.535 40.8089 120.152 41.1416C119.774 41.4743 119.585 42.1055 119.585 43.0352V47H118.354ZM130.885 44.3408L132.095 44.498C131.963 45.332 131.623 45.986 131.076 46.46C130.534 46.9294 129.866 47.1641 129.073 47.1641C128.08 47.1641 127.28 46.8405 126.674 46.1934C126.072 45.5417 125.771 44.6097 125.771 43.3975C125.771 42.6136 125.901 41.9277 126.161 41.3398C126.421 40.752 126.815 40.3122 127.344 40.0205C127.877 39.7243 128.456 39.5762 129.08 39.5762C129.868 39.5762 130.513 39.7767 131.015 40.1777C131.516 40.5742 131.837 41.1393 131.979 41.873L130.782 42.0576C130.668 41.57 130.465 41.2031 130.174 40.957C129.887 40.7109 129.538 40.5879 129.128 40.5879C128.508 40.5879 128.005 40.8112 127.617 41.2578C127.23 41.6999 127.036 42.4017 127.036 43.3633C127.036 44.3385 127.223 45.0472 127.597 45.4893C127.97 45.9313 128.458 46.1523 129.06 46.1523C129.543 46.1523 129.946 46.0042 130.27 45.708C130.593 45.4118 130.798 44.9561 130.885 44.3408ZM133.154 38.3936V36.9785H134.385V38.3936H133.154ZM133.154 47V39.7402H134.385V47H133.154ZM141.002 46.1045C140.546 46.4919 140.106 46.7653 139.683 46.9248C139.263 47.0843 138.812 47.1641 138.329 47.1641C137.532 47.1641 136.919 46.9704 136.49 46.583C136.062 46.1911 135.848 45.6921 135.848 45.0859C135.848 44.7305 135.927 44.4069 136.087 44.1152C136.251 43.819 136.463 43.582 136.723 43.4043C136.987 43.2266 137.283 43.0921 137.611 43.001C137.853 42.9372 138.217 42.8757 138.705 42.8164C139.699 42.6979 140.43 42.5566 140.899 42.3926C140.904 42.224 140.906 42.1169 140.906 42.0713C140.906 41.57 140.79 41.2168 140.558 41.0117C140.243 40.7337 139.776 40.5947 139.156 40.5947C138.577 40.5947 138.149 40.6973 137.871 40.9023C137.598 41.1029 137.395 41.4606 137.263 41.9756L136.06 41.8115C136.169 41.2965 136.349 40.8818 136.6 40.5674C136.85 40.2484 137.213 40.0046 137.687 39.8359C138.16 39.6628 138.71 39.5762 139.334 39.5762C139.954 39.5762 140.457 39.6491 140.845 39.7949C141.232 39.9408 141.517 40.1253 141.699 40.3486C141.882 40.5674 142.009 40.8454 142.082 41.1826C142.123 41.3923 142.144 41.7705 142.144 42.3174V43.958C142.144 45.1019 142.169 45.8265 142.219 46.1318C142.273 46.4326 142.378 46.722 142.533 47H141.248C141.12 46.7448 141.038 46.4463 141.002 46.1045ZM140.899 43.3564C140.453 43.5387 139.783 43.6937 138.89 43.8213C138.384 43.8942 138.026 43.9762 137.816 44.0674C137.607 44.1585 137.445 44.293 137.331 44.4707C137.217 44.6439 137.16 44.8376 137.16 45.0518C137.16 45.3799 137.283 45.6533 137.529 45.8721C137.78 46.0908 138.145 46.2002 138.623 46.2002C139.097 46.2002 139.519 46.0977 139.888 45.8926C140.257 45.6829 140.528 45.3981 140.701 45.0381C140.833 44.7601 140.899 44.3499 140.899 43.8076V43.3564ZM152.664 47V46.084C152.204 46.804 151.527 47.1641 150.634 47.1641C150.055 47.1641 149.522 47.0046 149.034 46.6855C148.551 46.3665 148.175 45.9222 147.906 45.3525C147.642 44.7783 147.51 44.1198 147.51 43.377C147.51 42.6523 147.631 41.9961 147.872 41.4082C148.114 40.8158 148.476 40.3623 148.959 40.0479C149.442 39.7334 149.982 39.5762 150.579 39.5762C151.017 39.5762 151.406 39.6696 151.748 39.8564C152.09 40.0387 152.368 40.278 152.582 40.5742V36.9785H153.806V47H152.664ZM148.774 43.377C148.774 44.3066 148.97 45.0016 149.362 45.4619C149.754 45.9222 150.217 46.1523 150.75 46.1523C151.288 46.1523 151.743 45.9336 152.117 45.4961C152.495 45.054 152.685 44.3818 152.685 43.4795C152.685 42.486 152.493 41.7568 152.11 41.292C151.728 40.8271 151.256 40.5947 150.695 40.5947C150.148 40.5947 149.69 40.818 149.321 41.2646C148.957 41.7113 148.774 42.4154 148.774 43.377ZM160.717 44.6621L161.988 44.8193C161.788 45.5622 161.416 46.1387 160.874 46.5488C160.332 46.959 159.639 47.1641 158.796 47.1641C157.734 47.1641 156.891 46.8382 156.267 46.1865C155.647 45.5303 155.337 44.612 155.337 43.4316C155.337 42.2103 155.651 41.2624 156.28 40.5879C156.909 39.9134 157.725 39.5762 158.728 39.5762C159.698 39.5762 160.491 39.9066 161.106 40.5674C161.722 41.2282 162.029 42.1579 162.029 43.3564C162.029 43.4294 162.027 43.5387 162.022 43.6846H156.608C156.654 44.4821 156.88 45.0928 157.285 45.5166C157.691 45.9404 158.197 46.1523 158.803 46.1523C159.254 46.1523 159.639 46.0339 159.958 45.7969C160.277 45.5599 160.53 45.1816 160.717 44.6621ZM156.677 42.6729H160.73C160.676 42.0622 160.521 41.6042 160.266 41.2988C159.874 40.8249 159.366 40.5879 158.741 40.5879C158.176 40.5879 157.7 40.777 157.312 41.1553C156.93 41.5335 156.718 42.0394 156.677 42.6729ZM167.614 47V36.9785H172.058C172.951 36.9785 173.63 37.0697 174.095 37.252C174.56 37.4297 174.931 37.7464 175.209 38.2021C175.487 38.6579 175.626 39.1615 175.626 39.7129C175.626 40.4238 175.396 41.0231 174.936 41.5107C174.475 41.9984 173.764 42.3083 172.803 42.4404C173.154 42.609 173.42 42.7754 173.603 42.9395C173.99 43.2949 174.357 43.7393 174.703 44.2725L176.446 47H174.778L173.452 44.915C173.065 44.3135 172.746 43.8532 172.495 43.5342C172.244 43.2152 172.019 42.9919 171.818 42.8643C171.622 42.7367 171.422 42.6478 171.217 42.5977C171.066 42.5658 170.82 42.5498 170.479 42.5498H168.94V47H167.614ZM168.94 41.4014H171.791C172.397 41.4014 172.871 41.3398 173.213 41.2168C173.555 41.0892 173.814 40.8887 173.992 40.6152C174.17 40.3372 174.259 40.0365 174.259 39.7129C174.259 39.2389 174.086 38.8493 173.739 38.5439C173.397 38.2386 172.855 38.0859 172.112 38.0859H168.94V41.4014ZM180.117 48.4424V47.2119C179.502 47.1344 179.001 46.9977 178.613 46.8018C178.23 46.6012 177.898 46.2799 177.615 45.8379C177.337 45.3958 177.175 44.8558 177.13 44.2178L178.367 43.9854C178.463 44.6462 178.632 45.1315 178.873 45.4414C179.219 45.8789 179.634 46.1227 180.117 46.1729V42.2559C179.611 42.1602 179.094 41.9642 178.565 41.668C178.174 41.4492 177.87 41.1462 177.656 40.7588C177.447 40.3714 177.342 39.9316 177.342 39.4395C177.342 38.5645 177.652 37.8558 178.271 37.3135C178.686 36.9489 179.301 36.7256 180.117 36.6436V36.0557H180.842V36.6436C181.557 36.7119 182.125 36.9215 182.544 37.2725C183.082 37.7191 183.405 38.332 183.515 39.1113L182.243 39.3027C182.17 38.8197 182.018 38.4505 181.785 38.1953C181.557 37.9355 181.243 37.7646 180.842 37.6826V41.2305C181.462 41.3854 181.872 41.5062 182.072 41.5928C182.455 41.7614 182.767 41.9665 183.009 42.208C183.25 42.4495 183.435 42.7367 183.562 43.0693C183.695 43.402 183.761 43.762 183.761 44.1494C183.761 45.0016 183.49 45.7126 182.947 46.2822C182.405 46.8519 181.703 47.1572 180.842 47.1982V48.4424H180.117ZM180.117 37.6689C179.639 37.7419 179.26 37.9333 178.982 38.2432C178.709 38.5531 178.572 38.9199 178.572 39.3438C178.572 39.763 178.688 40.1139 178.921 40.3965C179.158 40.679 179.557 40.9046 180.117 41.0732V37.6689ZM180.842 46.1729C181.32 46.1136 181.715 45.9062 182.024 45.5508C182.339 45.1953 182.496 44.7555 182.496 44.2314C182.496 43.7848 182.384 43.4271 182.161 43.1582C181.942 42.8848 181.503 42.641 180.842 42.4268V46.1729ZM188.901 44.375L190.193 44.2656C190.289 44.8945 190.51 45.3685 190.856 45.6875C191.207 46.002 191.629 46.1592 192.121 46.1592C192.714 46.1592 193.215 45.9359 193.625 45.4893C194.035 45.0426 194.24 44.4502 194.24 43.7119C194.24 43.0101 194.042 42.4564 193.646 42.0508C193.254 41.6452 192.739 41.4424 192.101 41.4424C191.704 41.4424 191.346 41.5335 191.027 41.7158C190.708 41.8936 190.458 42.126 190.275 42.4131L189.12 42.2627L190.091 37.1152H195.074V38.291H191.075L190.535 40.9844C191.137 40.5651 191.768 40.3555 192.429 40.3555C193.304 40.3555 194.042 40.6585 194.644 41.2646C195.245 41.8708 195.546 42.6501 195.546 43.6025C195.546 44.5094 195.282 45.2933 194.753 45.9541C194.11 46.7653 193.233 47.1709 192.121 47.1709C191.21 47.1709 190.465 46.9157 189.886 46.4053C189.312 45.8949 188.983 45.2181 188.901 44.375ZM197.385 47V45.5986H198.786V47H197.385ZM200.591 42.0576C200.591 40.8727 200.712 39.9202 200.953 39.2002C201.199 38.4756 201.562 37.9173 202.04 37.5254C202.523 37.1335 203.129 36.9375 203.858 36.9375C204.396 36.9375 204.868 37.0469 205.273 37.2656C205.679 37.4798 206.014 37.792 206.278 38.2021C206.543 38.6077 206.75 39.1045 206.9 39.6924C207.051 40.2757 207.126 41.0641 207.126 42.0576C207.126 43.2334 207.005 44.1836 206.764 44.9082C206.522 45.6283 206.16 46.1865 205.677 46.583C205.198 46.9749 204.592 47.1709 203.858 47.1709C202.892 47.1709 202.133 46.8245 201.582 46.1318C200.921 45.2979 200.591 43.9398 200.591 42.0576ZM201.855 42.0576C201.855 43.7028 202.047 44.7988 202.43 45.3457C202.817 45.888 203.293 46.1592 203.858 46.1592C204.424 46.1592 204.897 45.8857 205.28 45.3389C205.668 44.792 205.861 43.6982 205.861 42.0576C205.861 40.4079 205.668 39.3118 205.28 38.7695C204.897 38.2272 204.419 37.9561 203.845 37.9561C203.28 37.9561 202.828 38.1953 202.491 38.6738C202.067 39.2845 201.855 40.4124 201.855 42.0576ZM208.384 42.0576C208.384 40.8727 208.505 39.9202 208.746 39.2002C208.992 38.4756 209.354 37.9173 209.833 37.5254C210.316 37.1335 210.922 36.9375 211.651 36.9375C212.189 36.9375 212.661 37.0469 213.066 37.2656C213.472 37.4798 213.807 37.792 214.071 38.2021C214.336 38.6077 214.543 39.1045 214.693 39.6924C214.844 40.2757 214.919 41.0641 214.919 42.0576C214.919 43.2334 214.798 44.1836 214.557 44.9082C214.315 45.6283 213.953 46.1865 213.47 46.583C212.991 46.9749 212.385 47.1709 211.651 47.1709C210.685 47.1709 209.926 46.8245 209.375 46.1318C208.714 45.2979 208.384 43.9398 208.384 42.0576ZM209.648 42.0576C209.648 43.7028 209.84 44.7988 210.223 45.3457C210.61 45.888 211.086 46.1592 211.651 46.1592C212.216 46.1592 212.69 45.8857 213.073 45.3389C213.461 44.792 213.654 43.6982 213.654 42.0576C213.654 40.4079 213.461 39.3118 213.073 38.7695C212.69 38.2272 212.212 37.9561 211.638 37.9561C211.073 37.9561 210.621 38.1953 210.284 38.6738C209.86 39.2845 209.648 40.4124 209.648 42.0576ZM216.177 42.0576C216.177 40.8727 216.298 39.9202 216.539 39.2002C216.785 38.4756 217.147 37.9173 217.626 37.5254C218.109 37.1335 218.715 36.9375 219.444 36.9375C219.982 36.9375 220.454 37.0469 220.859 37.2656C221.265 37.4798 221.6 37.792 221.864 38.2021C222.129 38.6077 222.336 39.1045 222.486 39.6924C222.637 40.2757 222.712 41.0641 222.712 42.0576C222.712 43.2334 222.591 44.1836 222.35 44.9082C222.108 45.6283 221.746 46.1865 221.263 46.583C220.784 46.9749 220.178 47.1709 219.444 47.1709C218.478 47.1709 217.719 46.8245 217.168 46.1318C216.507 45.2979 216.177 43.9398 216.177 42.0576ZM217.441 42.0576C217.441 43.7028 217.633 44.7988 218.016 45.3457C218.403 45.888 218.879 46.1592 219.444 46.1592C220.009 46.1592 220.483 45.8857 220.866 45.3389C221.254 44.792 221.447 43.6982 221.447 42.0576C221.447 40.4079 221.254 39.3118 220.866 38.7695C220.483 38.2272 220.005 37.9561 219.431 37.9561C218.866 37.9561 218.414 38.1953 218.077 38.6738C217.653 39.2845 217.441 40.4124 217.441 42.0576ZM224.633 47V45.5986H226.034V47C226.034 47.515 225.943 47.9297 225.761 48.2441C225.578 48.5632 225.289 48.8092 224.893 48.9824L224.551 48.4561C224.811 48.3421 225.002 48.1735 225.125 47.9502C225.248 47.7314 225.316 47.4147 225.33 47H224.633ZM227.866 42.0576C227.866 40.8727 227.987 39.9202 228.229 39.2002C228.475 38.4756 228.837 37.9173 229.315 37.5254C229.799 37.1335 230.405 36.9375 231.134 36.9375C231.672 36.9375 232.143 37.0469 232.549 37.2656C232.954 37.4798 233.289 37.792 233.554 38.2021C233.818 38.6077 234.025 39.1045 234.176 39.6924C234.326 40.2757 234.401 41.0641 234.401 42.0576C234.401 43.2334 234.281 44.1836 234.039 44.9082C233.798 45.6283 233.435 46.1865 232.952 46.583C232.474 46.9749 231.868 47.1709 231.134 47.1709C230.168 47.1709 229.409 46.8245 228.857 46.1318C228.197 45.2979 227.866 43.9398 227.866 42.0576ZM229.131 42.0576C229.131 43.7028 229.322 44.7988 229.705 45.3457C230.092 45.888 230.569 46.1592 231.134 46.1592C231.699 46.1592 232.173 45.8857 232.556 45.3389C232.943 44.792 233.137 43.6982 233.137 42.0576C233.137 40.4079 232.943 39.3118 232.556 38.7695C232.173 38.2272 231.694 37.9561 231.12 37.9561C230.555 37.9561 230.104 38.1953 229.767 38.6738C229.343 39.2845 229.131 40.4124 229.131 42.0576ZM235.659 42.0576C235.659 40.8727 235.78 39.9202 236.021 39.2002C236.268 38.4756 236.63 37.9173 237.108 37.5254C237.591 37.1335 238.198 36.9375 238.927 36.9375C239.465 36.9375 239.936 37.0469 240.342 37.2656C240.747 37.4798 241.082 37.792 241.347 38.2021C241.611 38.6077 241.818 39.1045 241.969 39.6924C242.119 40.2757 242.194 41.0641 242.194 42.0576C242.194 43.2334 242.074 44.1836 241.832 44.9082C241.59 45.6283 241.228 46.1865 240.745 46.583C240.267 46.9749 239.66 47.1709 238.927 47.1709C237.961 47.1709 237.202 46.8245 236.65 46.1318C235.99 45.2979 235.659 43.9398 235.659 42.0576ZM236.924 42.0576C236.924 43.7028 237.115 44.7988 237.498 45.3457C237.885 45.888 238.362 46.1592 238.927 46.1592C239.492 46.1592 239.966 45.8857 240.349 45.3389C240.736 44.792 240.93 43.6982 240.93 42.0576C240.93 40.4079 240.736 39.3118 240.349 38.7695C239.966 38.2272 239.487 37.9561 238.913 37.9561C238.348 37.9561 237.897 38.1953 237.56 38.6738C237.136 39.2845 236.924 40.4124 236.924 42.0576Z" fill="#B1B1B1"/>
<path d="M256.94 22.24C256.567 22.0933 256.28 21.88 256.08 21.6C255.88 21.32 255.78 20.98 255.78 20.58C255.78 20.22 255.87 19.8967 256.05 19.61C256.23 19.3167 256.497 19.0867 256.85 18.92C257.21 18.7467 257.643 18.66 258.15 18.66C258.657 18.66 259.087 18.7467 259.44 18.92C259.8 19.0867 260.07 19.3167 260.25 19.61C260.437 19.8967 260.53 20.22 260.53 20.58C260.53 20.9667 260.427 21.3067 260.22 21.6C260.013 21.8867 259.73 22.1 259.37 22.24C259.783 22.3667 260.11 22.59 260.35 22.91C260.597 23.2233 260.72 23.6033 260.72 24.05C260.72 24.4833 260.613 24.8633 260.4 25.19C260.187 25.51 259.883 25.76 259.49 25.94C259.103 26.1133 258.657 26.2 258.15 26.2C257.643 26.2 257.197 26.1133 256.81 25.94C256.43 25.76 256.133 25.51 255.92 25.19C255.707 24.8633 255.6 24.4833 255.6 24.05C255.6 23.6033 255.72 23.22 255.96 22.9C256.2 22.58 256.527 22.36 256.94 22.24ZM259.65 20.69C259.65 20.2833 259.517 19.97 259.25 19.75C258.983 19.53 258.617 19.42 258.15 19.42C257.69 19.42 257.327 19.53 257.06 19.75C256.793 19.97 256.66 20.2867 256.66 20.7C256.66 21.0733 256.797 21.3733 257.07 21.6C257.35 21.8267 257.71 21.94 258.15 21.94C258.597 21.94 258.957 21.8267 259.23 21.6C259.51 21.3667 259.65 21.0633 259.65 20.69ZM258.15 22.64C257.657 22.64 257.253 22.7567 256.94 22.99C256.627 23.2167 256.47 23.56 256.47 24.02C256.47 24.4467 256.62 24.79 256.92 25.05C257.227 25.31 257.637 25.44 258.15 25.44C258.663 25.44 259.07 25.31 259.37 25.05C259.67 24.79 259.82 24.4467 259.82 24.02C259.82 23.5733 259.667 23.2333 259.36 23C259.053 22.76 258.65 22.64 258.15 22.64ZM271.335 20.42C271.761 20.42 272.141 20.51 272.475 20.69C272.808 20.8633 273.071 21.1267 273.265 21.48C273.458 21.8333 273.555 22.2633 273.555 22.77V26H272.655V22.9C272.655 22.3533 272.518 21.9367 272.245 21.65C271.978 21.3567 271.615 21.21 271.155 21.21C270.681 21.21 270.305 21.3633 270.025 21.67C269.745 21.97 269.605 22.4067 269.605 22.98V26H268.705V22.9C268.705 22.3533 268.568 21.9367 268.295 21.65C268.028 21.3567 267.665 21.21 267.205 21.21C266.731 21.21 266.355 21.3633 266.075 21.67C265.795 21.97 265.655 22.4067 265.655 22.98V26H264.745V20.52H265.655V21.31C265.835 21.0233 266.075 20.8033 266.375 20.65C266.681 20.4967 267.018 20.42 267.385 20.42C267.845 20.42 268.251 20.5233 268.605 20.73C268.958 20.9367 269.221 21.24 269.395 21.64C269.548 21.2533 269.801 20.9533 270.155 20.74C270.508 20.5267 270.901 20.42 271.335 20.42ZM275.517 19.63C275.344 19.63 275.197 19.57 275.077 19.45C274.957 19.33 274.897 19.1833 274.897 19.01C274.897 18.8367 274.957 18.69 275.077 18.57C275.197 18.45 275.344 18.39 275.517 18.39C275.684 18.39 275.824 18.45 275.937 18.57C276.057 18.69 276.117 18.8367 276.117 19.01C276.117 19.1833 276.057 19.33 275.937 19.45C275.824 19.57 275.684 19.63 275.517 19.63ZM275.957 20.52V26H275.047V20.52H275.957ZM280.178 20.42C280.845 20.42 281.385 20.6233 281.798 21.03C282.212 21.43 282.418 22.01 282.418 22.77V26H281.518V22.9C281.518 22.3533 281.382 21.9367 281.108 21.65C280.835 21.3567 280.462 21.21 279.988 21.21C279.508 21.21 279.125 21.36 278.838 21.66C278.558 21.96 278.418 22.3967 278.418 22.97V26H277.508V20.52H278.418V21.3C278.598 21.02 278.842 20.8033 279.148 20.65C279.462 20.4967 279.805 20.42 280.178 20.42ZM284.195 26.06C284.021 26.06 283.875 26 283.755 25.88C283.635 25.76 283.575 25.6133 283.575 25.44C283.575 25.2667 283.635 25.12 283.755 25C283.875 24.88 284.021 24.82 284.195 24.82C284.361 24.82 284.501 24.88 284.615 25C284.735 25.12 284.795 25.2667 284.795 25.44C284.795 25.6133 284.735 25.76 284.615 25.88C284.501 26 284.361 26.06 284.195 26.06Z" fill="#B1B1B1"/>
</g>
<defs>
<filter id="filter0_b_60_573" x="-14.0326" y="-14.6" width="328.633" height="93.2" filterUnits="userSpaceOnUse" color-interpolation-filters="sRGB">
<feFlood flood-opacity="0" result="BackgroundImageFix"/>
<feGaussianBlur in="BackgroundImageFix" stdDeviation="7.3"/>
<feComposite in2="SourceAlpha" operator="in" result="effect1_backgroundBlur_60_573"/>
<feBlend mode="normal" in="SourceGraphic" in2="effect1_backgroundBlur_60_573" result="shape"/>
</filter>
<radialGradient id="paint0_radial_60_573" cx="0" cy="0" r="1" gradientUnits="userSpaceOnUse" gradientTransform="translate(150.284 32) rotate(90) scale(45.1429 211.207)">
<stop offset="0.576081" stop-color="#FACC15" stop-opacity="0.1"/>
<stop offset="1" stop-color="#FACC15" stop-opacity="0.75"/>
</radialGradient>
<clipPath id="clip0_60_573">
<rect x="14.5674" y="14.2837" width="35.4326" height="35.4326" rx="4.72435" fill="white"/>
</clipPath>
</defs>
</svg>
