<svg width="153" height="30" viewBox="0 0 153 30" fill="none" xmlns="http://www.w3.org/2000/svg">
<g filter="url(#filter0_b_135_96)">
<rect x="0.567383" width="151.533" height="29.4065" rx="2.74678" fill="url(#paint0_radial_135_96)" fill-opacity="0.08"/>
<rect x="0.722625" y="0.155242" width="151.222" height="29.096" rx="2.59154" stroke="white" stroke-opacity="0.25" stroke-width="0.310484"/>
<g clip-path="url(#clip0_135_96)">
<path d="M25.108 6.55307H8.80762V22.8534H25.108V6.55307Z" fill="#820AD1"/>
<path d="M13.744 12.4364C14.062 12.0992 14.484 11.9022 14.9797 11.9022C15.9453 11.9022 16.5854 12.6137 16.7075 13.6799C16.7473 14.0263 16.7468 14.5143 16.7465 15.0798V17.3741H15.419V15.8076C15.419 15.8076 15.4162 14.4668 15.4082 14.2163C15.3725 13.1249 14.7324 12.439 13.7438 12.4383C13.4457 12.7564 13.2858 13.1454 13.2623 13.74C13.259 13.8229 13.2598 14.1167 13.2608 14.5045C13.2608 14.7053 13.262 14.9311 13.2623 15.1656C13.2633 16.1868 13.2623 17.3744 13.2623 17.3744H11.9343V14.9634C11.9343 14.8815 11.9327 14.7975 11.9312 14.7138C11.9283 14.5456 11.9252 14.3761 11.9343 14.2081C11.9493 13.9283 11.9972 13.6532 12.1266 13.3976C12.4227 12.8121 13.0295 12.4351 13.6765 12.4351C13.699 12.4351 13.7216 12.4351 13.744 12.4364Z" fill="white"/>
<path d="M21.9811 15.1982C21.9902 15.0304 21.9871 14.8607 21.9842 14.6925C21.9827 14.6088 21.9811 14.5256 21.9811 14.4429V12.0319H20.6532C20.6532 12.0319 20.6521 13.2195 20.6532 14.2407C20.6532 14.4752 20.6532 14.701 20.6545 14.9018C20.6555 15.2893 20.6563 15.5834 20.6532 15.6663C20.6296 16.2609 20.4697 16.6499 20.1716 16.968C19.1829 16.968 18.5428 16.2816 18.5073 15.1902C18.4991 14.9396 18.4957 14.3178 18.4957 13.5975V12.0309L17.1687 12.0322V14.3265C17.1687 14.892 17.1679 15.38 17.2077 15.7264C17.3299 16.7926 17.97 17.5041 18.9355 17.5041C19.4312 17.5041 19.853 17.3076 20.1712 16.9699C20.1936 16.9707 20.2161 16.9712 20.2387 16.9712C20.8857 16.9712 21.4924 16.5946 21.7886 16.0087C21.918 15.7531 21.9659 15.478 21.9809 15.1981L21.9811 15.1982Z" fill="white"/>
</g>
<path d="M32.9232 12.4936L30.6378 6.59499H31.4827L33.0157 10.8801C33.1391 11.2235 33.2424 11.5454 33.3255 11.8458C33.4167 11.5239 33.5227 11.202 33.6434 10.8801L35.2368 6.59499H36.0334L33.7239 12.4936H32.9232ZM39.1075 11.1175L39.8559 11.2101C39.7378 11.6473 39.5192 11.9866 39.2 12.228C38.8808 12.4694 38.4731 12.5902 37.9768 12.5902C37.3518 12.5902 36.8556 12.3984 36.4881 12.0148C36.1233 11.6285 35.9409 11.088 35.9409 10.3933C35.9409 9.67439 36.126 9.11645 36.4961 8.71945C36.8663 8.32245 37.3465 8.12396 37.9366 8.12396C38.5079 8.12396 38.9747 8.31843 39.3368 8.70738C39.6989 9.09633 39.88 9.64354 39.88 10.349C39.88 10.3919 39.8787 10.4563 39.876 10.5421H36.6893C36.7161 11.0116 36.8489 11.371 37.0876 11.6205C37.3263 11.8699 37.6241 11.9947 37.9809 11.9947C38.2464 11.9947 38.4731 11.9249 38.6608 11.7854C38.8486 11.646 38.9975 11.4233 39.1075 11.1175ZM36.7295 9.94665H39.1155C39.0833 9.58721 38.9921 9.31763 38.8419 9.1379C38.6112 8.85893 38.3121 8.71945 37.9446 8.71945C37.612 8.71945 37.3317 8.83077 37.1037 9.05341C36.8784 9.27605 36.7537 9.5738 36.7295 9.94665ZM40.7692 12.4936V8.22052H41.421V8.82809C41.7349 8.35867 42.1882 8.12396 42.781 8.12396C43.0385 8.12396 43.2746 8.1709 43.4892 8.26478C43.7064 8.35598 43.8687 8.47669 43.976 8.62691C44.0833 8.77712 44.1584 8.9555 44.2013 9.16205C44.2282 9.29617 44.2416 9.53088 44.2416 9.86618V12.4936H43.5173V9.89434C43.5173 9.59928 43.4892 9.37932 43.4328 9.23447C43.3765 9.08694 43.2759 8.97025 43.1311 8.88442C42.9889 8.7959 42.8213 8.75164 42.6281 8.75164C42.3196 8.75164 42.0527 8.84955 41.8274 9.04536C41.6048 9.24118 41.4935 9.61269 41.4935 10.1599V12.4936H40.7692ZM48.1284 12.4936V11.9544C47.8575 12.3782 47.4591 12.5902 46.9334 12.5902C46.5927 12.5902 46.2789 12.4963 45.9919 12.3085C45.7075 12.1207 45.4862 11.8592 45.328 11.5239C45.1724 11.1859 45.0946 10.7983 45.0946 10.3611C45.0946 9.93458 45.1657 9.54831 45.3078 9.20228C45.45 8.85357 45.6633 8.58667 45.9476 8.40158C46.2319 8.2165 46.5498 8.12396 46.9012 8.12396C47.1587 8.12396 47.388 8.17895 47.5892 8.28892C47.7904 8.39622 47.954 8.53705 48.0801 8.7114V6.59499H48.8003V12.4936H48.1284ZM45.839 10.3611C45.839 10.9083 45.9543 11.3174 46.185 11.5883C46.4157 11.8592 46.6879 11.9947 47.0018 11.9947C47.3183 11.9947 47.5865 11.8659 47.8065 11.6084C48.0291 11.3482 48.1405 10.9526 48.1405 10.4214C48.1405 9.83667 48.0278 9.40749 47.8025 9.13388C47.5772 8.86028 47.2995 8.72347 46.9696 8.72347C46.6477 8.72347 46.3781 8.85491 46.1608 9.11779C45.9463 9.38066 45.839 9.79509 45.839 10.3611ZM52.7314 11.9665C52.4631 12.1945 52.2043 12.3554 51.9548 12.4493C51.7081 12.5432 51.4425 12.5902 51.1582 12.5902C50.6887 12.5902 50.328 12.4762 50.0758 12.2482C49.8237 12.0175 49.6976 11.7237 49.6976 11.367C49.6976 11.1578 49.7445 10.9673 49.8384 10.7956C49.935 10.6213 50.0597 10.4818 50.2126 10.3772C50.3682 10.2726 50.5425 10.1934 50.7357 10.1398C50.8778 10.1022 51.0924 10.066 51.3795 10.0311C51.9642 9.9614 52.3947 9.87825 52.671 9.78168C52.6737 9.68243 52.6751 9.6194 52.6751 9.59257C52.6751 9.29751 52.6067 9.08962 52.4699 8.96891C52.2848 8.80529 52.0098 8.72347 51.645 8.72347C51.3044 8.72347 51.0522 8.78383 50.8886 8.90454C50.7276 9.02256 50.6083 9.23313 50.5305 9.53624L49.8223 9.43968C49.8867 9.13656 49.9927 8.89246 50.1402 8.70738C50.2877 8.51961 50.501 8.3761 50.7799 8.27685C51.0589 8.17492 51.3821 8.12396 51.7496 8.12396C52.1144 8.12396 52.4108 8.16687 52.6388 8.25271C52.8669 8.33855 53.0345 8.44719 53.1418 8.57862C53.2491 8.70738 53.3242 8.87101 53.3671 9.0695C53.3913 9.19289 53.4033 9.41553 53.4033 9.73742V10.7031C53.4033 11.3764 53.4181 11.8029 53.4476 11.9826C53.4798 12.1596 53.5415 12.33 53.6327 12.4936H52.8762C52.8011 12.3434 52.7528 12.1677 52.7314 11.9665ZM52.671 10.349C52.4082 10.4563 52.0138 10.5475 51.4881 10.6226C51.1903 10.6655 50.9798 10.7138 50.8564 10.7675C50.733 10.8211 50.6378 10.9002 50.5707 11.0049C50.5037 11.1068 50.4701 11.2208 50.4701 11.3469C50.4701 11.54 50.5425 11.7009 50.6874 11.8297C50.8349 11.9585 51.0495 12.0228 51.3312 12.0228C51.6101 12.0228 51.8583 11.9625 52.0755 11.8418C52.2928 11.7184 52.4524 11.5507 52.5544 11.3388C52.6321 11.1752 52.671 10.9338 52.671 10.6146V10.349ZM59.6118 11.9665C59.3435 12.1945 59.0847 12.3554 58.8352 12.4493C58.5884 12.5432 58.3229 12.5902 58.0385 12.5902C57.5691 12.5902 57.2083 12.4762 56.9562 12.2482C56.704 12.0175 56.578 11.7237 56.578 11.367C56.578 11.1578 56.6249 10.9673 56.7188 10.7956C56.8153 10.6213 56.9401 10.4818 57.093 10.3772C57.2486 10.2726 57.4229 10.1934 57.616 10.1398C57.7582 10.1022 57.9728 10.066 58.2598 10.0311C58.8446 9.9614 59.2751 9.87825 59.5514 9.78168C59.5541 9.68243 59.5554 9.6194 59.5554 9.59257C59.5554 9.29751 59.487 9.08962 59.3502 8.96891C59.1651 8.80529 58.8902 8.72347 58.5254 8.72347C58.1847 8.72347 57.9326 8.78383 57.7689 8.90454C57.608 9.02256 57.4886 9.23313 57.4108 9.53624L56.7027 9.43968C56.7671 9.13656 56.873 8.89246 57.0206 8.70738C57.1681 8.51961 57.3813 8.3761 57.6603 8.27685C57.9393 8.17492 58.2625 8.12396 58.63 8.12396C58.9948 8.12396 59.2912 8.16687 59.5192 8.25271C59.7472 8.33855 59.9149 8.44719 60.0222 8.57862C60.1295 8.70738 60.2046 8.87101 60.2475 9.0695C60.2716 9.19289 60.2837 9.41553 60.2837 9.73742V10.7031C60.2837 11.3764 60.2985 11.8029 60.328 11.9826C60.3601 12.1596 60.4218 12.33 60.513 12.4936H59.7566C59.6815 12.3434 59.6332 12.1677 59.6118 11.9665ZM59.5514 10.349C59.2885 10.4563 58.8942 10.5475 58.3685 10.6226C58.0707 10.6655 57.8601 10.7138 57.7368 10.7675C57.6134 10.8211 57.5181 10.9002 57.4511 11.0049C57.384 11.1068 57.3505 11.2208 57.3505 11.3469C57.3505 11.54 57.4229 11.7009 57.5678 11.8297C57.7153 11.9585 57.9299 12.0228 58.2115 12.0228C58.4905 12.0228 58.7386 11.9625 58.9559 11.8418C59.1732 11.7184 59.3328 11.5507 59.4347 11.3388C59.5125 11.1752 59.5514 10.9338 59.5514 10.6146V10.349ZM61.4103 14.1312V8.22052H62.0702V8.77578C62.2258 8.55851 62.4015 8.39622 62.5973 8.28892C62.7931 8.17895 63.0305 8.12396 63.3094 8.12396C63.6743 8.12396 63.9961 8.21784 64.2751 8.40561C64.5541 8.59338 64.7647 8.85893 64.9068 9.20228C65.049 9.54295 65.1201 9.91714 65.1201 10.3249C65.1201 10.7621 65.0409 11.1564 64.8827 11.5078C64.7271 11.8565 64.4991 12.1248 64.1987 12.3125C63.9009 12.4976 63.5871 12.5902 63.2571 12.5902C63.0157 12.5902 62.7984 12.5392 62.6053 12.4373C62.4149 12.3353 62.2579 12.2066 62.1346 12.051V14.1312H61.4103ZM62.0662 10.3812C62.0662 10.9311 62.1775 11.3375 62.4001 11.6004C62.6228 11.8632 62.8923 11.9947 63.2089 11.9947C63.5307 11.9947 63.8057 11.8592 64.0337 11.5883C64.2644 11.3147 64.3797 10.8922 64.3797 10.3208C64.3797 9.77632 64.2671 9.36859 64.0417 9.09767C63.8191 8.82675 63.5522 8.69128 63.241 8.69128C62.9326 8.69128 62.659 8.83613 62.4202 9.12583C62.1842 9.41285 62.0662 9.83131 62.0662 10.3812ZM65.9892 12.4936V8.22052H66.641V8.86832C66.8073 8.56521 66.9602 8.36537 67.0997 8.26881C67.2419 8.17224 67.3974 8.12396 67.5664 8.12396C67.8105 8.12396 68.0586 8.20175 68.3108 8.35733L68.0613 9.02927C67.8843 8.92465 67.7072 8.87235 67.5302 8.87235C67.3719 8.87235 67.2298 8.92063 67.1037 9.0172C66.9776 9.11108 66.8878 9.24252 66.8341 9.41151C66.7537 9.66902 66.7134 9.95067 66.7134 10.2565V12.4936H65.9892ZM68.4717 10.3571C68.4717 9.56575 68.6917 8.97964 69.1316 8.59874C69.4991 8.28222 69.9471 8.12396 70.4755 8.12396C71.0629 8.12396 71.5431 8.31709 71.9159 8.70336C72.2888 9.08694 72.4752 9.61805 72.4752 10.2967C72.4752 10.8466 72.3921 11.2798 72.2258 11.5963C72.0621 11.9102 71.8221 12.1543 71.5055 12.3286C71.1917 12.503 70.8483 12.5902 70.4755 12.5902C69.8773 12.5902 69.3931 12.3984 69.023 12.0148C68.6555 11.6312 68.4717 11.0786 68.4717 10.3571ZM69.2161 10.3571C69.2161 10.9043 69.3355 11.3147 69.5742 11.5883C69.8129 11.8592 70.1134 11.9947 70.4755 11.9947C70.8349 11.9947 71.134 11.8579 71.3728 11.5843C71.6115 11.3107 71.7309 10.8935 71.7309 10.3329C71.7309 9.80448 71.6101 9.4048 71.3687 9.13388C71.13 8.86028 70.8322 8.72347 70.4755 8.72347C70.1134 8.72347 69.8129 8.85893 69.5742 9.12986C69.3355 9.40078 69.2161 9.80985 69.2161 10.3571ZM74.5152 12.4936L72.8897 8.22052H73.6541L74.5715 10.7795C74.6708 11.0558 74.762 11.3428 74.8451 11.6406C74.9095 11.4153 74.9994 11.1443 75.1147 10.8278L76.0643 8.22052H76.8086L75.1912 12.4936H74.5152ZM80.2368 11.9665C79.9685 12.1945 79.7097 12.3554 79.4602 12.4493C79.2134 12.5432 78.9479 12.5902 78.6635 12.5902C78.1941 12.5902 77.8333 12.4762 77.5812 12.2482C77.329 12.0175 77.203 11.7237 77.203 11.367C77.203 11.1578 77.2499 10.9673 77.3438 10.7956C77.4403 10.6213 77.5651 10.4818 77.718 10.3772C77.8736 10.2726 78.0479 10.1934 78.241 10.1398C78.3832 10.1022 78.5978 10.066 78.8848 10.0311C79.4696 9.9614 79.9001 9.87825 80.1764 9.78168C80.1791 9.68243 80.1804 9.6194 80.1804 9.59257C80.1804 9.29751 80.112 9.08962 79.9752 8.96891C79.7901 8.80529 79.5152 8.72347 79.1504 8.72347C78.8097 8.72347 78.5576 8.78383 78.3939 8.90454C78.233 9.02256 78.1136 9.23313 78.0358 9.53624L77.3277 9.43968C77.3921 9.13656 77.498 8.89246 77.6456 8.70738C77.7931 8.51961 78.0063 8.3761 78.2853 8.27685C78.5643 8.17492 78.8875 8.12396 79.255 8.12396C79.6198 8.12396 79.9162 8.16687 80.1442 8.25271C80.3722 8.33855 80.5399 8.44719 80.6472 8.57862C80.7545 8.70738 80.8296 8.87101 80.8725 9.0695C80.8966 9.19289 80.9087 9.41553 80.9087 9.73742V10.7031C80.9087 11.3764 80.9234 11.8029 80.953 11.9826C80.9851 12.1596 81.0468 12.33 81.138 12.4936H80.3816C80.3065 12.3434 80.2582 12.1677 80.2368 11.9665ZM80.1764 10.349C79.9135 10.4563 79.5192 10.5475 78.9935 10.6226C78.6957 10.6655 78.4851 10.7138 78.3618 10.7675C78.2384 10.8211 78.1431 10.9002 78.0761 11.0049C78.009 11.1068 77.9755 11.2208 77.9755 11.3469C77.9755 11.54 78.0479 11.7009 78.1928 11.8297C78.3403 11.9585 78.5549 12.0228 78.8365 12.0228C79.1155 12.0228 79.3636 11.9625 79.5809 11.8418C79.7982 11.7184 79.9578 11.5507 80.0597 11.3388C80.1375 11.1752 80.1764 10.9338 80.1764 10.6146V10.349ZM84.8076 12.4936V11.9544C84.5366 12.3782 84.1383 12.5902 83.6126 12.5902C83.2719 12.5902 82.9581 12.4963 82.671 12.3085C82.3867 12.1207 82.1654 11.8592 82.0071 11.5239C81.8516 11.1859 81.7738 10.7983 81.7738 10.3611C81.7738 9.93458 81.8449 9.54831 81.987 9.20228C82.1292 8.85357 82.3424 8.58667 82.6268 8.40158C82.9111 8.2165 83.229 8.12396 83.5804 8.12396C83.8379 8.12396 84.0672 8.17895 84.2684 8.28892C84.4696 8.39622 84.6332 8.53705 84.7593 8.7114V6.59499H85.4795V12.4936H84.8076ZM82.5181 10.3611C82.5181 10.9083 82.6335 11.3174 82.8642 11.5883C83.0949 11.8592 83.3671 11.9947 83.681 11.9947C83.9975 11.9947 84.2657 11.8659 84.4857 11.6084C84.7083 11.3482 84.8196 10.9526 84.8196 10.4214C84.8196 9.83667 84.707 9.40749 84.4817 9.13388C84.2563 8.86028 83.9787 8.72347 83.6488 8.72347C83.3269 8.72347 83.0573 8.85491 82.84 9.11779C82.6254 9.38066 82.5181 9.79509 82.5181 10.3611ZM89.4106 11.9665C89.1423 12.1945 88.8835 12.3554 88.634 12.4493C88.3872 12.5432 88.1217 12.5902 87.8373 12.5902C87.3679 12.5902 87.0071 12.4762 86.755 12.2482C86.5028 12.0175 86.3768 11.7237 86.3768 11.367C86.3768 11.1578 86.4237 10.9673 86.5176 10.7956C86.6142 10.6213 86.7389 10.4818 86.8918 10.3772C87.0474 10.2726 87.2217 10.1934 87.4149 10.1398C87.557 10.1022 87.7716 10.066 88.0586 10.0311C88.6434 9.9614 89.0739 9.87825 89.3502 9.78168C89.3529 9.68243 89.3542 9.6194 89.3542 9.59257C89.3542 9.29751 89.2858 9.08962 89.149 8.96891C88.964 8.80529 88.689 8.72347 88.3242 8.72347C87.9835 8.72347 87.7314 8.78383 87.5678 8.90454C87.4068 9.02256 87.2875 9.23313 87.2097 9.53624L86.5015 9.43968C86.5659 9.13656 86.6718 8.89246 86.8194 8.70738C86.9669 8.51961 87.1802 8.3761 87.4591 8.27685C87.7381 8.17492 88.0613 8.12396 88.4288 8.12396C88.7936 8.12396 89.09 8.16687 89.318 8.25271C89.546 8.33855 89.7137 8.44719 89.821 8.57862C89.9283 8.70738 90.0034 8.87101 90.0463 9.0695C90.0704 9.19289 90.0825 9.41553 90.0825 9.73742V10.7031C90.0825 11.3764 90.0973 11.8029 90.1268 11.9826C90.159 12.1596 90.2207 12.33 90.3119 12.4936H89.5554C89.4803 12.3434 89.432 12.1677 89.4106 11.9665ZM89.3502 10.349C89.0873 10.4563 88.693 10.5475 88.1673 10.6226C87.8695 10.6655 87.659 10.7138 87.5356 10.7675C87.4122 10.8211 87.317 10.9002 87.2499 11.0049C87.1828 11.1068 87.1493 11.2208 87.1493 11.3469C87.1493 11.54 87.2217 11.7009 87.3666 11.8297C87.5141 11.9585 87.7287 12.0228 88.0104 12.0228C88.2893 12.0228 88.5375 11.9625 88.7547 11.8418C88.972 11.7184 89.1316 11.5507 89.2335 11.3388C89.3113 11.1752 89.3502 10.9338 89.3502 10.6146V10.349ZM91.5954 11.029L91.3741 7.90266V6.59499H92.2714V7.90266L92.0621 11.029H91.5954ZM91.4063 12.4936V11.6688H92.2392V12.4936H91.4063Z" fill="white"/>
<path d="M32.4165 21.9129V17.4935H30.7656V16.9022H34.7373V17.4935H33.0796V21.9129H32.4165ZM35.0757 21.9129V18.2831H35.6294V18.8333C35.7707 18.5759 35.9006 18.4061 36.019 18.3241C36.1398 18.242 36.272 18.201 36.4155 18.201C36.6229 18.201 36.8337 18.2671 37.0479 18.3993L36.8359 18.9701C36.6855 18.8812 36.5352 18.8368 36.3848 18.8368C36.2503 18.8368 36.1296 18.8778 36.0225 18.9598C35.9154 19.0396 35.839 19.1512 35.7935 19.2948C35.7251 19.5135 35.6909 19.7528 35.6909 20.0125V21.9129H35.0757ZM39.7822 21.4652C39.5544 21.6589 39.3345 21.7956 39.1226 21.8753C38.9129 21.9551 38.6873 21.995 38.4458 21.995C38.047 21.995 37.7406 21.8981 37.5264 21.7044C37.3122 21.5085 37.2051 21.259 37.2051 20.9559C37.2051 20.7782 37.245 20.6164 37.3247 20.4706C37.4067 20.3224 37.5127 20.2039 37.6426 20.1151C37.7747 20.0262 37.9229 19.959 38.0869 19.9134C38.2077 19.8815 38.39 19.8508 38.6338 19.8211C39.1305 19.7619 39.4963 19.6913 39.731 19.6092C39.7332 19.5249 39.7344 19.4714 39.7344 19.4486C39.7344 19.1979 39.6763 19.0213 39.5601 18.9188C39.4028 18.7798 39.1693 18.7103 38.8594 18.7103C38.57 18.7103 38.3558 18.7616 38.2168 18.8641C38.0801 18.9644 37.9787 19.1432 37.9126 19.4007L37.311 19.3187C37.3657 19.0612 37.4557 18.8539 37.5811 18.6966C37.7064 18.5371 37.8875 18.4152 38.1245 18.3309C38.3615 18.2443 38.6361 18.201 38.9482 18.201C39.2581 18.201 39.5099 18.2375 39.7036 18.3104C39.8973 18.3833 40.0397 18.4756 40.1309 18.5872C40.222 18.6966 40.2858 18.8356 40.3223 19.0042C40.3428 19.1091 40.353 19.2982 40.353 19.5716V20.3919C40.353 20.9639 40.3656 21.3262 40.3906 21.4789C40.418 21.6292 40.4704 21.7739 40.5479 21.9129H39.9053C39.8415 21.7853 39.8005 21.6361 39.7822 21.4652ZM39.731 20.0912C39.5076 20.1823 39.1727 20.2598 38.7261 20.3236C38.4731 20.36 38.2943 20.4011 38.1895 20.4466C38.0846 20.4922 38.0037 20.5594 37.9468 20.6483C37.8898 20.7349 37.8613 20.8317 37.8613 20.9388C37.8613 21.1029 37.9229 21.2396 38.0459 21.349C38.1712 21.4583 38.3535 21.513 38.5928 21.513C38.8298 21.513 39.0405 21.4618 39.2251 21.3592C39.4097 21.2544 39.5452 21.112 39.6318 20.932C39.6979 20.793 39.731 20.5879 39.731 20.3167V20.0912ZM41.3101 21.9129V18.2831H41.8638V18.7992C42.1304 18.4004 42.5155 18.201 43.019 18.201C43.2378 18.201 43.4383 18.2409 43.6206 18.3206C43.8052 18.3981 43.943 18.5007 44.0342 18.6283C44.1253 18.7559 44.1891 18.9074 44.2256 19.0829C44.2484 19.1968 44.2598 19.3962 44.2598 19.681V21.9129H43.6445V19.7049C43.6445 19.4543 43.6206 19.2674 43.5728 19.1444C43.5249 19.0191 43.4395 18.9199 43.3164 18.847C43.1956 18.7718 43.0532 18.7342 42.8892 18.7342C42.6271 18.7342 42.4004 18.8174 42.209 18.9837C42.0199 19.1501 41.9253 19.4657 41.9253 19.9305V21.9129H41.3101ZM44.9604 20.8294L45.5688 20.7337C45.603 20.9775 45.6976 21.1644 45.8525 21.2943C46.0098 21.4242 46.2285 21.4891 46.5088 21.4891C46.7913 21.4891 47.001 21.4321 47.1377 21.3182C47.2744 21.202 47.3428 21.0664 47.3428 20.9115C47.3428 20.7725 47.2824 20.6631 47.1616 20.5833C47.0773 20.5287 46.8677 20.4592 46.5327 20.3748C46.0815 20.2609 45.7682 20.1629 45.5928 20.0809C45.4196 19.9966 45.2874 19.8815 45.1963 19.7357C45.1074 19.5876 45.063 19.4247 45.063 19.2469C45.063 19.0851 45.0994 18.9359 45.1724 18.7992C45.2476 18.6602 45.349 18.5451 45.4766 18.4539C45.5723 18.3833 45.7021 18.3241 45.8662 18.2762C46.0326 18.2261 46.2103 18.201 46.3994 18.201C46.6842 18.201 46.9338 18.242 47.1479 18.3241C47.3644 18.4061 47.5239 18.5178 47.6265 18.659C47.729 18.798 47.7996 18.9849 47.8384 19.2196L47.2368 19.3016C47.2095 19.1148 47.1297 18.9689 46.9976 18.8641C46.8677 18.7593 46.6831 18.7069 46.4438 18.7069C46.1613 18.7069 45.9596 18.7536 45.8389 18.847C45.7181 18.9404 45.6577 19.0498 45.6577 19.1751C45.6577 19.2549 45.6828 19.3267 45.7329 19.3905C45.783 19.4566 45.8617 19.5112 45.9688 19.5545C46.0303 19.5773 46.2114 19.6297 46.5122 19.7118C46.9474 19.828 47.2505 19.9237 47.4214 19.9989C47.5946 20.0718 47.7301 20.1789 47.8281 20.3202C47.9261 20.4614 47.9751 20.6369 47.9751 20.8465C47.9751 21.0516 47.9147 21.2453 47.7939 21.4276C47.6755 21.6076 47.5034 21.7477 47.2778 21.848C47.0522 21.946 46.797 21.995 46.5122 21.995C46.0405 21.995 45.6805 21.897 45.4321 21.701C45.186 21.5051 45.0288 21.2145 44.9604 20.8294ZM48.8535 21.9129V18.7616H48.3101V18.2831H48.8535V17.8968C48.8535 17.653 48.8752 17.4719 48.9185 17.3534C48.9777 17.1939 49.0814 17.0651 49.2295 16.9671C49.3799 16.8669 49.5895 16.8167 49.8584 16.8167C50.0316 16.8167 50.223 16.8372 50.4326 16.8783L50.3403 17.4149C50.2127 17.3921 50.092 17.3807 49.978 17.3807C49.7912 17.3807 49.659 17.4206 49.5815 17.5003C49.5041 17.5801 49.4653 17.7293 49.4653 17.9481V18.2831H50.1729V18.7616H49.4653V21.9129H48.8535ZM53.1396 20.744L53.7754 20.8226C53.6751 21.194 53.4894 21.4823 53.2183 21.6873C52.9471 21.8924 52.6007 21.995 52.1792 21.995C51.6483 21.995 51.2267 21.832 50.9146 21.5062C50.6047 21.1781 50.4497 20.7189 50.4497 20.1288C50.4497 19.5181 50.6069 19.0441 50.9214 18.7069C51.2358 18.3696 51.6437 18.201 52.145 18.201C52.6304 18.201 53.0269 18.3662 53.3345 18.6966C53.6421 19.027 53.7959 19.4919 53.7959 20.0912C53.7959 20.1276 53.7948 20.1823 53.7925 20.2552H51.0854C51.1082 20.654 51.221 20.9593 51.4238 21.1712C51.6266 21.3831 51.8796 21.4891 52.1826 21.4891C52.4082 21.4891 52.6007 21.4299 52.7603 21.3114C52.9198 21.1929 53.0462 21.0038 53.1396 20.744ZM51.1196 19.7494H53.1465C53.1191 19.444 53.0417 19.215 52.9141 19.0623C52.7181 18.8254 52.464 18.7069 52.1519 18.7069C51.8693 18.7069 51.6312 18.8014 51.4375 18.9906C51.2461 19.1797 51.1401 19.4326 51.1196 19.7494ZM54.5444 21.9129V18.2831H55.0981V18.8333C55.2394 18.5759 55.3693 18.4061 55.4878 18.3241C55.6086 18.242 55.7407 18.201 55.8843 18.201C56.0916 18.201 56.3024 18.2671 56.5166 18.3993L56.3047 18.9701C56.1543 18.8812 56.0039 18.8368 55.8535 18.8368C55.7191 18.8368 55.5983 18.8778 55.4912 18.9598C55.3841 19.0396 55.3078 19.1512 55.2622 19.2948C55.1938 19.5135 55.1597 19.7528 55.1597 20.0125V21.9129H54.5444ZM59.3672 20.744L60.0029 20.8226C59.9027 21.194 59.717 21.4823 59.4458 21.6873C59.1746 21.8924 58.8283 21.995 58.4067 21.995C57.8758 21.995 57.4543 21.832 57.1421 21.5062C56.8322 21.1781 56.6772 20.7189 56.6772 20.1288C56.6772 19.5181 56.8345 19.0441 57.1489 18.7069C57.4634 18.3696 57.8713 18.201 58.3726 18.201C58.8579 18.201 59.2544 18.3662 59.562 18.6966C59.8696 19.027 60.0234 19.4919 60.0234 20.0912C60.0234 20.1276 60.0223 20.1823 60.02 20.2552H57.313C57.3358 20.654 57.4486 20.9593 57.6514 21.1712C57.8542 21.3831 58.1071 21.4891 58.4102 21.4891C58.6357 21.4891 58.8283 21.4299 58.9878 21.3114C59.1473 21.1929 59.2738 21.0038 59.3672 20.744ZM57.3472 19.7494H59.374C59.3467 19.444 59.2692 19.215 59.1416 19.0623C58.9456 18.8254 58.6916 18.7069 58.3794 18.7069C58.0968 18.7069 57.8587 18.8014 57.665 18.9906C57.4736 19.1797 57.3677 19.4326 57.3472 19.7494ZM58.3589 17.2508L57.9727 17.8319H57.2686L58.0068 16.8748H58.6631L59.4321 17.8319H58.7349L58.3589 17.2508ZM60.7788 21.9129V18.2831H61.3325V18.7992C61.5991 18.4004 61.9842 18.201 62.4878 18.201C62.7065 18.201 62.9071 18.2409 63.0894 18.3206C63.2739 18.3981 63.4118 18.5007 63.5029 18.6283C63.5941 18.7559 63.6579 18.9074 63.6943 19.0829C63.7171 19.1968 63.7285 19.3962 63.7285 19.681V21.9129H63.1133V19.7049C63.1133 19.4543 63.0894 19.2674 63.0415 19.1444C62.9937 19.0191 62.9082 18.9199 62.7852 18.847C62.6644 18.7718 62.522 18.7342 62.3579 18.7342C62.0959 18.7342 61.8691 18.8174 61.6777 18.9837C61.4886 19.1501 61.394 19.4657 61.394 19.9305V21.9129H60.7788ZM67.0439 20.5833L67.6489 20.662C67.5828 21.0789 67.4131 21.4059 67.1396 21.6429C66.8685 21.8776 66.5347 21.995 66.1382 21.995C65.6414 21.995 65.2415 21.8332 64.9385 21.5096C64.6377 21.1838 64.4873 20.7178 64.4873 20.1117C64.4873 19.7197 64.5522 19.3768 64.6821 19.0829C64.812 18.7889 65.0091 18.569 65.2734 18.4232C65.54 18.2751 65.8294 18.201 66.1416 18.201C66.5358 18.201 66.8582 18.3013 67.1089 18.5018C67.3595 18.7 67.5202 18.9826 67.5908 19.3495L66.9927 19.4417C66.9357 19.1979 66.8343 19.0145 66.6885 18.8914C66.5449 18.7684 66.3706 18.7069 66.1655 18.7069C65.8556 18.7069 65.6038 18.8185 65.4102 19.0418C65.2165 19.2629 65.1196 19.6138 65.1196 20.0946C65.1196 20.5822 65.2131 20.9365 65.3999 21.1576C65.5868 21.3786 65.8306 21.4891 66.1313 21.4891C66.3729 21.4891 66.5745 21.415 66.7363 21.2669C66.8981 21.1188 67.0007 20.891 67.0439 20.5833ZM68.1787 17.6097V16.9022H68.7939V17.6097H68.1787ZM68.1787 21.9129V18.2831H68.7939V21.9129H68.1787ZM72.1025 21.4652C71.8747 21.6589 71.6548 21.7956 71.4429 21.8753C71.2332 21.9551 71.0076 21.995 70.7661 21.995C70.3674 21.995 70.0609 21.8981 69.8467 21.7044C69.6325 21.5085 69.5254 21.259 69.5254 20.9559C69.5254 20.7782 69.5653 20.6164 69.645 20.4706C69.7271 20.3224 69.833 20.2039 69.9629 20.1151C70.0951 20.0262 70.2432 19.959 70.4072 19.9134C70.528 19.8815 70.7103 19.8508 70.9541 19.8211C71.4508 19.7619 71.8166 19.6913 72.0513 19.6092C72.0535 19.5249 72.0547 19.4714 72.0547 19.4486C72.0547 19.1979 71.9966 19.0213 71.8804 18.9188C71.7231 18.7798 71.4896 18.7103 71.1797 18.7103C70.8903 18.7103 70.6761 18.7616 70.5371 18.8641C70.4004 18.9644 70.299 19.1432 70.2329 19.4007L69.6313 19.3187C69.686 19.0612 69.776 18.8539 69.9014 18.6966C70.0267 18.5371 70.2078 18.4152 70.4448 18.3309C70.6818 18.2443 70.9564 18.201 71.2686 18.201C71.5785 18.201 71.8302 18.2375 72.0239 18.3104C72.2176 18.3833 72.36 18.4756 72.4512 18.5872C72.5423 18.6966 72.6061 18.8356 72.6426 19.0042C72.6631 19.1091 72.6733 19.2982 72.6733 19.5716V20.3919C72.6733 20.9639 72.6859 21.3262 72.7109 21.4789C72.7383 21.6292 72.7907 21.7739 72.8682 21.9129H72.2256C72.1618 21.7853 72.1208 21.6361 72.1025 21.4652ZM72.0513 20.0912C71.828 20.1823 71.493 20.2598 71.0464 20.3236C70.7935 20.36 70.6146 20.4011 70.5098 20.4466C70.4049 20.4922 70.3241 20.5594 70.2671 20.6483C70.2101 20.7349 70.1816 20.8317 70.1816 20.9388C70.1816 21.1029 70.2432 21.2396 70.3662 21.349C70.4915 21.4583 70.6738 21.513 70.9131 21.513C71.1501 21.513 71.3608 21.4618 71.5454 21.3592C71.73 21.2544 71.8656 21.112 71.9521 20.932C72.0182 20.793 72.0513 20.5879 72.0513 20.3167V20.0912ZM77.9336 21.9129V21.4549C77.7035 21.815 77.3651 21.995 76.9185 21.995C76.6291 21.995 76.3625 21.9152 76.1187 21.7557C75.8771 21.5962 75.6891 21.374 75.5547 21.0892C75.4225 20.8021 75.3564 20.4728 75.3564 20.1014C75.3564 19.7391 75.4168 19.411 75.5376 19.117C75.6584 18.8208 75.8395 18.5941 76.0811 18.4369C76.3226 18.2796 76.5926 18.201 76.8911 18.201C77.1099 18.201 77.3047 18.2477 77.4756 18.3412C77.6465 18.4323 77.7855 18.5519 77.8926 18.7V16.9022H78.5044V21.9129H77.9336ZM75.9888 20.1014C75.9888 20.5663 76.0868 20.9137 76.2827 21.1439C76.4787 21.374 76.71 21.4891 76.9766 21.4891C77.2454 21.4891 77.4733 21.3797 77.6602 21.161C77.8493 20.94 77.9438 20.6039 77.9438 20.1527C77.9438 19.6559 77.8481 19.2914 77.6567 19.0589C77.4653 18.8265 77.2295 18.7103 76.9492 18.7103C76.6758 18.7103 76.4468 18.822 76.2622 19.0453C76.0799 19.2686 75.9888 19.6206 75.9888 20.1014ZM81.96 20.744L82.5957 20.8226C82.4954 21.194 82.3097 21.4823 82.0386 21.6873C81.7674 21.8924 81.4211 21.995 80.9995 21.995C80.4686 21.995 80.047 21.832 79.7349 21.5062C79.425 21.1781 79.27 20.7189 79.27 20.1288C79.27 19.5181 79.4272 19.0441 79.7417 18.7069C80.0562 18.3696 80.464 18.201 80.9653 18.201C81.4507 18.201 81.8472 18.3662 82.1548 18.6966C82.4624 19.027 82.6162 19.4919 82.6162 20.0912C82.6162 20.1276 82.6151 20.1823 82.6128 20.2552H79.9058C79.9285 20.654 80.0413 20.9593 80.2441 21.1712C80.4469 21.3831 80.6999 21.4891 81.0029 21.4891C81.2285 21.4891 81.4211 21.4299 81.5806 21.3114C81.7401 21.1929 81.8665 21.0038 81.96 20.744ZM79.9399 19.7494H81.9668C81.9395 19.444 81.862 19.215 81.7344 19.0623C81.5384 18.8254 81.2843 18.7069 80.9722 18.7069C80.6896 18.7069 80.4515 18.8014 80.2578 18.9906C80.0664 19.1797 79.9604 19.4326 79.9399 19.7494ZM85.4087 21.9129V16.9022H87.6304C88.077 16.9022 88.4165 16.9478 88.6489 17.0389C88.8813 17.1278 89.0671 17.2861 89.2061 17.514C89.3451 17.7419 89.4146 17.9937 89.4146 18.2694C89.4146 18.6248 89.2995 18.9245 89.0693 19.1683C88.8392 19.4121 88.4837 19.5671 88.0029 19.6331C88.1784 19.7175 88.3117 19.8006 88.4028 19.8827C88.5965 20.0604 88.7799 20.2826 88.9531 20.5492L89.8247 21.9129H88.9907L88.3276 20.8705C88.134 20.5697 87.9744 20.3395 87.8491 20.18C87.7238 20.0205 87.611 19.9089 87.5107 19.8451C87.4128 19.7813 87.3125 19.7368 87.21 19.7118C87.1348 19.6958 87.0117 19.6878 86.8408 19.6878H86.0718V21.9129H85.4087ZM86.0718 19.1136H87.4971C87.8001 19.1136 88.0371 19.0829 88.208 19.0213C88.3789 18.9575 88.5088 18.8573 88.5977 18.7206C88.6865 18.5816 88.731 18.4312 88.731 18.2694C88.731 18.0324 88.6444 17.8376 88.4712 17.6849C88.3003 17.5322 88.0291 17.4559 87.6577 17.4559H86.0718V19.1136ZM91.6602 22.6341V22.0189C91.3525 21.9802 91.1019 21.9118 90.9082 21.8138C90.7168 21.7136 90.5505 21.5529 90.4092 21.3319C90.2702 21.1109 90.1893 20.8408 90.1665 20.5218L90.7852 20.4056C90.833 20.736 90.9173 20.9787 91.0381 21.1336C91.2113 21.3524 91.4186 21.4743 91.6602 21.4994V19.5409C91.4072 19.493 91.1486 19.395 90.8843 19.2469C90.6883 19.1375 90.5368 18.986 90.4297 18.7923C90.3249 18.5986 90.2725 18.3788 90.2725 18.1327C90.2725 17.6952 90.4274 17.3408 90.7373 17.0697C90.9447 16.8874 91.2523 16.7757 91.6602 16.7347V16.4408H92.0225V16.7347C92.3802 16.7689 92.6639 16.8737 92.8735 17.0492C93.1424 17.2725 93.3042 17.5789 93.3589 17.9686L92.7231 18.0643C92.6867 17.8228 92.6104 17.6382 92.4941 17.5106C92.3802 17.3807 92.223 17.2953 92.0225 17.2542V19.0282C92.3324 19.1056 92.5374 19.166 92.6377 19.2093C92.8291 19.2936 92.9852 19.3962 93.106 19.5169C93.2267 19.6377 93.319 19.7813 93.3828 19.9476C93.4489 20.1139 93.4819 20.294 93.4819 20.4876C93.4819 20.9137 93.3464 21.2692 93.0752 21.554C92.804 21.8389 92.4531 21.9915 92.0225 22.0121V22.6341H91.6602ZM91.6602 17.2474C91.4209 17.2839 91.2318 17.3796 91.0928 17.5345C90.9561 17.6895 90.8877 17.8729 90.8877 18.0848C90.8877 18.2944 90.9458 18.4699 91.062 18.6112C91.1805 18.7525 91.3799 18.8652 91.6602 18.9496V17.2474ZM92.0225 21.4994C92.2617 21.4697 92.4588 21.3661 92.6138 21.1883C92.771 21.0106 92.8496 20.7907 92.8496 20.5287C92.8496 20.3053 92.7938 20.1265 92.6821 19.992C92.5728 19.8553 92.3529 19.7334 92.0225 19.6263V21.4994ZM96.0522 20.6004L96.6982 20.5457C96.7461 20.8602 96.8566 21.0972 97.0298 21.2567C97.2052 21.4139 97.416 21.4925 97.6621 21.4925C97.9583 21.4925 98.209 21.3809 98.4141 21.1576C98.6191 20.9343 98.7217 20.638 98.7217 20.2689C98.7217 19.918 98.6226 19.6411 98.4243 19.4383C98.2284 19.2355 97.9709 19.1341 97.6519 19.1341C97.4536 19.1341 97.2747 19.1797 97.1152 19.2708C96.9557 19.3597 96.8304 19.4759 96.7393 19.6195L96.1616 19.5443L96.647 16.9706H99.1387V17.5584H97.1392L96.8691 18.9051C97.1699 18.6955 97.4855 18.5907 97.8159 18.5907C98.2534 18.5907 98.6226 18.7422 98.9233 19.0453C99.2241 19.3483 99.3745 19.738 99.3745 20.2142C99.3745 20.6677 99.2424 21.0596 98.978 21.39C98.6567 21.7956 98.2181 21.9984 97.6621 21.9984C97.2064 21.9984 96.8338 21.8708 96.5444 21.6156C96.2573 21.3604 96.0933 21.022 96.0522 20.6004ZM100.294 21.9129V21.2122H100.995V21.9129H100.294ZM101.897 19.4417C101.897 18.8493 101.957 18.3731 102.078 18.013C102.201 17.6507 102.382 17.3716 102.622 17.1756C102.863 16.9797 103.166 16.8817 103.531 16.8817C103.8 16.8817 104.035 16.9364 104.238 17.0457C104.441 17.1528 104.609 17.3089 104.741 17.514C104.873 17.7168 104.977 17.9652 105.052 18.2591C105.127 18.5508 105.165 18.945 105.165 19.4417C105.165 20.0296 105.104 20.5047 104.983 20.867C104.863 21.2271 104.681 21.5062 104.44 21.7044C104.201 21.9004 103.898 21.9984 103.531 21.9984C103.048 21.9984 102.668 21.8252 102.393 21.4789C102.062 21.0619 101.897 20.3828 101.897 19.4417ZM102.529 19.4417C102.529 20.2643 102.625 20.8123 102.816 21.0858C103.01 21.3569 103.248 21.4925 103.531 21.4925C103.813 21.4925 104.05 21.3558 104.242 21.0824C104.435 20.8089 104.532 20.2621 104.532 19.4417C104.532 18.6169 104.435 18.0689 104.242 17.7977C104.05 17.5265 103.811 17.391 103.524 17.391C103.241 17.391 103.016 17.5106 102.847 17.7498C102.635 18.0552 102.529 18.6192 102.529 19.4417ZM105.793 19.4417C105.793 18.8493 105.854 18.3731 105.975 18.013C106.098 17.6507 106.279 17.3716 106.518 17.1756C106.76 16.9797 107.063 16.8817 107.427 16.8817C107.696 16.8817 107.932 16.9364 108.135 17.0457C108.338 17.1528 108.505 17.3089 108.637 17.514C108.769 17.7168 108.873 17.9652 108.948 18.2591C109.023 18.5508 109.061 18.945 109.061 19.4417C109.061 20.0296 109.001 20.5047 108.88 20.867C108.759 21.2271 108.578 21.5062 108.336 21.7044C108.097 21.9004 107.794 21.9984 107.427 21.9984C106.944 21.9984 106.565 21.8252 106.289 21.4789C105.959 21.0619 105.793 20.3828 105.793 19.4417ZM106.426 19.4417C106.426 20.2643 106.521 20.8123 106.713 21.0858C106.907 21.3569 107.145 21.4925 107.427 21.4925C107.71 21.4925 107.947 21.3558 108.138 21.0824C108.332 20.8089 108.429 20.2621 108.429 19.4417C108.429 18.6169 108.332 18.0689 108.138 17.7977C107.947 17.5265 107.708 17.391 107.42 17.391C107.138 17.391 106.912 17.5106 106.744 17.7498C106.532 18.0552 106.426 18.6192 106.426 19.4417ZM109.69 19.4417C109.69 18.8493 109.75 18.3731 109.871 18.013C109.994 17.6507 110.175 17.3716 110.415 17.1756C110.656 16.9797 110.959 16.8817 111.324 16.8817C111.593 16.8817 111.828 16.9364 112.031 17.0457C112.234 17.1528 112.402 17.3089 112.534 17.514C112.666 17.7168 112.77 17.9652 112.845 18.2591C112.92 18.5508 112.958 18.945 112.958 19.4417C112.958 20.0296 112.897 20.5047 112.776 20.867C112.656 21.2271 112.474 21.5062 112.233 21.7044C111.994 21.9004 111.691 21.9984 111.324 21.9984C110.841 21.9984 110.461 21.8252 110.186 21.4789C109.855 21.0619 109.69 20.3828 109.69 19.4417ZM110.322 19.4417C110.322 20.2643 110.418 20.8123 110.609 21.0858C110.803 21.3569 111.041 21.4925 111.324 21.4925C111.606 21.4925 111.843 21.3558 112.035 21.0824C112.228 20.8089 112.325 20.2621 112.325 19.4417C112.325 18.6169 112.228 18.0689 112.035 17.7977C111.843 17.5265 111.604 17.391 111.317 17.391C111.034 17.391 110.809 17.5106 110.64 17.7498C110.428 18.0552 110.322 18.6192 110.322 19.4417ZM113.918 21.9129V21.2122H114.619V21.9129C114.619 22.1704 114.573 22.3778 114.482 22.535C114.391 22.6945 114.246 22.8176 114.048 22.9041L113.877 22.641C114.007 22.584 114.103 22.4997 114.164 22.388C114.226 22.2787 114.26 22.1203 114.267 21.9129H113.918ZM115.535 19.4417C115.535 18.8493 115.595 18.3731 115.716 18.013C115.839 17.6507 116.02 17.3716 116.259 17.1756C116.501 16.9797 116.804 16.8817 117.168 16.8817C117.437 16.8817 117.673 16.9364 117.876 17.0457C118.079 17.1528 118.246 17.3089 118.378 17.514C118.511 17.7168 118.614 17.9652 118.689 18.2591C118.765 18.5508 118.802 18.945 118.802 19.4417C118.802 20.0296 118.742 20.5047 118.621 20.867C118.5 21.2271 118.319 21.5062 118.078 21.7044C117.838 21.9004 117.535 21.9984 117.168 21.9984C116.685 21.9984 116.306 21.8252 116.03 21.4789C115.7 21.0619 115.535 20.3828 115.535 19.4417ZM116.167 19.4417C116.167 20.2643 116.263 20.8123 116.454 21.0858C116.648 21.3569 116.886 21.4925 117.168 21.4925C117.451 21.4925 117.688 21.3558 117.879 21.0824C118.073 20.8089 118.17 20.2621 118.17 19.4417C118.17 18.6169 118.073 18.0689 117.879 17.7977C117.688 17.5265 117.449 17.391 117.162 17.391C116.879 17.391 116.653 17.5106 116.485 17.7498C116.273 18.0552 116.167 18.6192 116.167 19.4417ZM119.431 19.4417C119.431 18.8493 119.492 18.3731 119.612 18.013C119.735 17.6507 119.917 17.3716 120.156 17.1756C120.397 16.9797 120.7 16.8817 121.065 16.8817C121.334 16.8817 121.57 16.9364 121.772 17.0457C121.975 17.1528 122.143 17.3089 122.275 17.514C122.407 17.7168 122.511 17.9652 122.586 18.2591C122.661 18.5508 122.699 18.945 122.699 19.4417C122.699 20.0296 122.638 20.5047 122.518 20.867C122.397 21.2271 122.216 21.5062 121.974 21.7044C121.735 21.9004 121.432 21.9984 121.065 21.9984C120.582 21.9984 120.202 21.8252 119.927 21.4789C119.596 21.0619 119.431 20.3828 119.431 19.4417ZM120.063 19.4417C120.063 20.2643 120.159 20.8123 120.351 21.0858C120.544 21.3569 120.782 21.4925 121.065 21.4925C121.347 21.4925 121.584 21.3558 121.776 21.0824C121.97 20.8089 122.066 20.2621 122.066 19.4417C122.066 18.6169 121.97 18.0689 121.776 17.7977C121.584 17.5265 121.345 17.391 121.058 17.391C120.776 17.391 120.55 17.5106 120.381 17.7498C120.169 18.0552 120.063 18.6192 120.063 19.4417Z" fill="#B1B1B1"/>
<path d="M128.83 8.03293C128.643 7.9596 128.5 7.85293 128.4 7.71293C128.3 7.57293 128.25 7.40293 128.25 7.20293C128.25 7.02293 128.295 6.86127 128.385 6.71793C128.475 6.57127 128.608 6.45627 128.785 6.37293C128.965 6.28627 129.181 6.24293 129.435 6.24293C129.688 6.24293 129.903 6.28627 130.08 6.37293C130.26 6.45627 130.395 6.57127 130.485 6.71793C130.578 6.86127 130.625 7.02293 130.625 7.20293C130.625 7.39627 130.573 7.56627 130.47 7.71293C130.366 7.85627 130.225 7.96293 130.045 8.03293C130.251 8.09627 130.415 8.20793 130.535 8.36793C130.658 8.5246 130.72 8.7146 130.72 8.93793C130.72 9.1546 130.666 9.3446 130.56 9.50793C130.453 9.66793 130.301 9.79293 130.105 9.88293C129.911 9.9696 129.688 10.0129 129.435 10.0129C129.181 10.0129 128.958 9.9696 128.765 9.88293C128.575 9.79293 128.426 9.66793 128.32 9.50793C128.213 9.3446 128.16 9.1546 128.16 8.93793C128.16 8.7146 128.22 8.52293 128.34 8.36293C128.46 8.20293 128.623 8.09293 128.83 8.03293ZM130.185 7.25793C130.185 7.0546 130.118 6.89793 129.985 6.78793C129.851 6.67793 129.668 6.62293 129.435 6.62293C129.205 6.62293 129.023 6.67793 128.89 6.78793C128.756 6.89793 128.69 7.05627 128.69 7.26293C128.69 7.4496 128.758 7.5996 128.895 7.71293C129.035 7.82627 129.215 7.88293 129.435 7.88293C129.658 7.88293 129.838 7.82627 129.975 7.71293C130.115 7.59627 130.185 7.4446 130.185 7.25793ZM129.435 8.23293C129.188 8.23293 128.986 8.29127 128.83 8.40793C128.673 8.52127 128.595 8.69293 128.595 8.92293C128.595 9.13627 128.67 9.30793 128.82 9.43793C128.973 9.56793 129.178 9.63293 129.435 9.63293C129.691 9.63293 129.895 9.56793 130.045 9.43793C130.195 9.30793 130.27 9.13627 130.27 8.92293C130.27 8.6996 130.193 8.5296 130.04 8.41293C129.886 8.29293 129.685 8.23293 129.435 8.23293ZM136.027 7.12293C136.24 7.12293 136.43 7.16793 136.597 7.25793C136.764 7.3446 136.895 7.47627 136.992 7.65293C137.089 7.8296 137.137 8.0446 137.137 8.29793V9.91293H136.687V8.36293C136.687 8.0896 136.619 7.88127 136.482 7.73793C136.349 7.59127 136.167 7.51793 135.937 7.51793C135.7 7.51793 135.512 7.5946 135.372 7.74793C135.232 7.89793 135.162 8.11627 135.162 8.40293V9.91293H134.712V8.36293C134.712 8.0896 134.644 7.88127 134.507 7.73793C134.374 7.59127 134.192 7.51793 133.962 7.51793C133.725 7.51793 133.537 7.5946 133.397 7.74793C133.257 7.89793 133.187 8.11627 133.187 8.40293V9.91293H132.732V7.17293H133.187V7.56793C133.277 7.4246 133.397 7.3146 133.547 7.23793C133.7 7.16127 133.869 7.12293 134.052 7.12293C134.282 7.12293 134.485 7.1746 134.662 7.27793C134.839 7.38127 134.97 7.53293 135.057 7.73293C135.134 7.5396 135.26 7.3896 135.437 7.28293C135.614 7.17627 135.81 7.12293 136.027 7.12293ZM138.118 6.72793C138.032 6.72793 137.958 6.69793 137.898 6.63793C137.838 6.57793 137.808 6.5046 137.808 6.41793C137.808 6.33127 137.838 6.25793 137.898 6.19793C137.958 6.13793 138.032 6.10793 138.118 6.10793C138.202 6.10793 138.272 6.13793 138.328 6.19793C138.388 6.25793 138.418 6.33127 138.418 6.41793C138.418 6.5046 138.388 6.57793 138.328 6.63793C138.272 6.69793 138.202 6.72793 138.118 6.72793ZM138.338 7.17293V9.91293H137.883V7.17293H138.338ZM140.449 7.12293C140.782 7.12293 141.052 7.2246 141.259 7.42793C141.465 7.62793 141.569 7.91793 141.569 8.29793V9.91293H141.119V8.36293C141.119 8.0896 141.05 7.88127 140.914 7.73793C140.777 7.59127 140.59 7.51793 140.354 7.51793C140.114 7.51793 139.922 7.59293 139.779 7.74293C139.639 7.89293 139.569 8.11127 139.569 8.39793V9.91293H139.114V7.17293H139.569V7.56293C139.659 7.42293 139.78 7.3146 139.934 7.23793C140.09 7.16127 140.262 7.12293 140.449 7.12293ZM142.457 9.94293C142.37 9.94293 142.297 9.91293 142.237 9.85293C142.177 9.79293 142.147 9.7196 142.147 9.63293C142.147 9.54627 142.177 9.47293 142.237 9.41293C142.297 9.35293 142.37 9.32293 142.457 9.32293C142.54 9.32293 142.61 9.35293 142.667 9.41293C142.727 9.47293 142.757 9.54627 142.757 9.63293C142.757 9.7196 142.727 9.79293 142.667 9.85293C142.61 9.91293 142.54 9.94293 142.457 9.94293Z" fill="#B1B1B1"/>
</g>
<defs>
<filter id="filter0_b_135_96" x="-4.61326" y="-5.18065" width="161.894" height="39.7678" filterUnits="userSpaceOnUse" color-interpolation-filters="sRGB">
<feFlood flood-opacity="0" result="BackgroundImageFix"/>
<feGaussianBlur in="BackgroundImageFix" stdDeviation="2.59032"/>
<feComposite in2="SourceAlpha" operator="in" result="effect1_backgroundBlur_135_96"/>
<feBlend mode="normal" in="SourceGraphic" in2="effect1_backgroundBlur_135_96" result="shape"/>
</filter>
<radialGradient id="paint0_radial_135_96" cx="0" cy="0" r="1" gradientUnits="userSpaceOnUse" gradientTransform="translate(76.3337 14.7032) rotate(90) scale(20.7421 106.885)">
<stop offset="0.576081" stop-color="#FACC15" stop-opacity="0.1"/>
<stop offset="1" stop-color="#FACC15" stop-opacity="0.75"/>
</radialGradient>
<clipPath id="clip0_135_96">
<rect x="8.80762" y="6.55307" width="16.3004" height="16.3004" rx="2.17338" fill="white"/>
</clipPath>
</defs>
</svg>
